<svg id="blob" viewBox="0 0 200 200" xmlns="http://www.w3.org/2000/svg">
  <path fill="#FF00C7" d="M45.8,-74.6C55.9,-64.8,58.1,-46.2,62.9,-30.3C67.8,-14.4,75.1,-1.3,74.2,11.3C73.4,23.8,64.3,35.8,54.3,46.6C44.3,57.4,33.4,67.1,20.9,70.2C8.5,73.3,-5.5,69.9,-17.6,64.4C-29.7,58.8,-39.8,51,-51.5,42.1C-63.2,33.1,-76.4,23,-81.8,9.6C-87.1,-3.9,-84.5,-20.6,-75.9,-32.6C-67.2,-44.6,-52.5,-51.7,-38.9,-59.9C-25.2,-68.1,-12.6,-77.3,2.6,-81.4C17.9,-85.4,35.7,-84.4,45.8,-74.6Z" transform="translate(100 100)" />
</svg>