<svg xmlns="http://www.w3.org/2000/svg" viewBox="0 0 2000 2000">
  <defs>
    <style>
      .cls-1 {
        isolation: isolate;
      }

      .cls-10, .cls-11, .cls-2 {
        fill: #1a2867;
      }

      .cls-14, .cls-3 {
        fill: #5b7ccd;
      }

      .cls-4, .cls-6 {
        fill: #a398f8;
      }

      .cls-5 {
        fill: #3d5cb9;
      }

      .cls-10, .cls-11, .cls-14, .cls-16, .cls-19, .cls-24, .cls-6 {
        opacity: 0.5;
      }

      .cls-10, .cls-16, .cls-19, .cls-24, .cls-6 {
        mix-blend-mode: multiply;
      }

      .cls-7, .cls-8 {
        fill: none;
        stroke-linecap: round;
        stroke-linejoin: round;
      }

      .cls-7 {
        stroke: #1a2867;
        stroke-width: 35px;
      }

      .cls-8 {
        stroke: #d172b2;
        stroke-width: 9px;
      }

      .cls-24, .cls-9 {
        fill: #7c59cd;
      }

      .cls-11, .cls-14 {
        mix-blend-mode: screen;
      }

      .cls-12 {
        fill: #babef7;
      }

      .cls-13 {
        fill: #1a4ac8;
      }

      .cls-15, .cls-16 {
        fill: #ce695b;
      }

      .cls-17 {
        fill: #d559ad;
      }

      .cls-18, .cls-19 {
        fill: #4a3c53;
      }

      .cls-20 {
        fill: #e279c4;
      }

      .cls-21 {
        fill: #4c1212;
      }

      .cls-22 {
        fill: #962a41;
      }

      .cls-23 {
        fill: #dbc3f5;
      }
    </style>
  </defs>
  <g class="cls-1">
    <g id="phone">
      <g>
        <path class="cls-2" d="M118.16,1258,577,942a47.75,47.75,0,0,1,68.33,15.26l245.67,421a47.75,47.75,0,0,1-15,63.94L426,1738.74a47.75,47.75,0,0,1-66.61-14.31L104.91,1322.92A47.76,47.76,0,0,1,118.16,1258Z"/>
        <path class="cls-3" d="M123.51,1251.64l458.87-316a47.75,47.75,0,0,1,68.33,15.26l245.67,421a47.75,47.75,0,0,1-15,63.94l-450,296.48a47.74,47.74,0,0,1-66.6-14.31l-254.5-401.51A47.76,47.76,0,0,1,123.51,1251.64Z"/>
        <path class="cls-4" d="M134.62,1240.33,587,928.84a47.08,47.08,0,0,1,67.36,15l242.16,415a47.07,47.07,0,0,1-14.76,63L438.08,1714.2a47.07,47.07,0,0,1-65.65-14.11L121.56,1304.3A47.08,47.08,0,0,1,134.62,1240.33Z"/>
        <path class="cls-5" d="M134.62,1240.33,587,928.84a47.08,47.08,0,0,1,67.36,15L678.78,1000,152,1352.29l-30.42-48A47.08,47.08,0,0,1,134.62,1240.33Z"/>
        <path class="cls-6" d="M587,928.84a47.08,47.08,0,0,1,67.36,15l242.16,415a47.07,47.07,0,0,1-14.76,63L678.78,1555.63l-119.11-608Z"/>
        <line class="cls-7" x1="219.86" y1="1132.79" x2="261.89" y2="1189.25"/>
        <line class="cls-7" x1="476" y1="957.67" x2="519.02" y2="1014.92"/>
        <rect class="cls-5" x="293.23" y="1336.04" width="102.29" height="102.29" transform="translate(-728.44 442.75) rotate(-34.7)"/>
        <rect class="cls-5" x="360" y="1432.47" width="102.29" height="102.29" transform="translate(-771.46 497.92) rotate(-34.7)"/>
        <rect class="cls-5" x="513.02" y="1181.97" width="102.29" height="102.29" transform="translate(-601.64 540.48) rotate(-34.7)"/>
        <rect class="cls-5" x="612.26" y="1115.13" width="102.29" height="102.29" transform="translate(-545.94 585.08) rotate(-34.7)"/>
        <g>
          <rect class="cls-5" x="477.54" y="1353.02" width="102.29" height="102.29" transform="translate(-705.33 550.7) rotate(-34.7)"/>
          <line class="cls-8" x1="525.67" y1="1442.64" x2="536.6" y2="1365.69"/>
          <line class="cls-8" x1="492.43" y1="1399.03" x2="569.84" y2="1405.9"/>
        </g>
      </g>
      <g>
        <path class="cls-9" d="M1352.8,1727.93l-539.33,66.92s-53.39,7.42-65.79-56.74S582.41,718,579,690.61c-6-48.25-9.44-62.17-6.87-70.56,4.2-13.76,29-45,36.55-53a9.13,9.13,0,0,1,7.06-2.88L1137,584.51s60.53,8.49,74.87,58.89c13.89,48.85,174.79,974.49,184.73,1031.69a8.93,8.93,0,0,1-.75,5.41C1390.86,1690.73,1378.92,1724.69,1352.8,1727.93Z"/>
        <path class="cls-2" d="M1372.13,1696.81,841.92,1759.7s-52.86,7.29-65.62-56.51S611.1,666.8,606.78,635.13,591.52,561.54,628,558.05c38.18-7.07,517.47-.94,517.47-.94s49.94.37,64.52,50.5,169.52,933,180.19,992.14S1412.23,1682.23,1372.13,1696.81Z"/>
        <path class="cls-10" d="M1332.35,1704.83,841.92,1759.7s56.19-7.29,43.43-71.09,152.52-51.95,152.52-51.95l316-5.4S1378.14,1699.71,1332.35,1704.83Z"/>
        <path class="cls-11" d="M1227,691.25,1013.29,555.73c75.69.66,132.13,1.38,132.13,1.38s49.94.37,64.52,50.5S1227,691.25,1227,691.25Z"/>
        <path class="cls-3" d="M823.92,1696.13S645.89,611.19,642.06,611.19c-1.73,0,117.24-.42,236.78,0,22.6.08,23.69,37.06,66.07,37.06S982.5,611,990,611.72c103.53,0,185,1.33,185,1.33L1360.5,1630.44Z"/>
        <path class="cls-3" d="M823.92,1696.13S645.89,611.19,642.06,611.19c-1.73,0,117.24-.42,236.78,0,22.6.08,23.69,37.06,66.07,37.06S982.5,611,990,611.72c103.53,0,185,1.33,185,1.33L1360.5,1630.44Z"/>
        <g>
          <ellipse class="cls-12" cx="939.98" cy="611.72" rx="15.41" ry="17.1" transform="translate(-180.63 566.98) rotate(-30.77)"/>
          <ellipse class="cls-9" cx="939.98" cy="611.72" rx="12.11" ry="13.43" transform="translate(-180.63 566.98) rotate(-30.77)"/>
          <ellipse class="cls-2" cx="939.08" cy="612.26" rx="11.06" ry="12.27" transform="translate(-181.03 566.6) rotate(-30.77)"/>
        </g>
        <g>
          <path class="cls-2" d="M592.52,709.82l3.32-2.6c2.46-2.33,6-.17,6.52,3.18l15.28,94.89a4.21,4.21,0,0,1-2.24,4.43s-5.28,1.9-6.76,2.19-2.67.25-3.31-1l-14.08-97.34A4.21,4.21,0,0,1,592.52,709.82Z"/>
          <path class="cls-4" d="M589.45,711.23l4.35-3.32c3.32-2.56,4.28-.07,4.8,3.13l14.7,94.1c.28,1.72-.06,3.45-1.47,4.06a40.69,40.69,0,0,1-5.29,1.79c-1.31.29-2.59-.69-3-3.39l-15.14-93A3.7,3.7,0,0,1,589.45,711.23Z"/>
        </g>
        <g>
          <path class="cls-2" d="M615.49,844.75l3.33-2.59c2.46-2.34,6-.18,6.52,3.17l15.28,94.9a4.22,4.22,0,0,1-2.25,4.42s-5.28,1.9-6.76,2.19-2.67.25-3.3-1l-14.09-97.34A4.21,4.21,0,0,1,615.49,844.75Z"/>
          <path class="cls-4" d="M612.42,846.16l4.35-3.32c3.32-2.56,4.29-.07,4.8,3.13l14.7,94.1c.28,1.72-.06,3.45-1.47,4.06a40.11,40.11,0,0,1-5.29,1.79c-1.31.3-2.59-.68-3-3.39l-15.14-93A3.71,3.71,0,0,1,612.42,846.16Z"/>
        </g>
      </g>
      <g>
        <path class="cls-12" d="M642.06,611.19l152.47,1.07s77.93,38.23,80.66,106.15c0,0,50.58-11.37,47.85,31s-47.85,87.93-47.85,87.93,56-48.77,90.23-25.29,28.23,145.61,28.23,145.61-20.55-206,21.41-239.26,100.89.24,100.89.24-16.56-45.79,13.52-48.52a217.43,217.43,0,0,1,56.46,2.65L1199,718.41s-202.72,607.81-264,624.95-180.16-.41-128.21-5.31,78.83-21.29,78.83-21.29L760.14,1309l-5.25-45.51s68.35-8.2,106.63-10.93,99.8-19.4,99.8-19.4-59.9-103-105.83-91.69-123.09,0-123.09,0Z"/>
        <path class="cls-13" d="M823.92,1696.13,778.76,1421.7s463.28-73.78,499.3-44.79,82.44,253.53,82.44,253.53Z"/>
        <path class="cls-3" d="M940,1452.2s-86.66-6.84-127.68,0,34,8.17,34,8.17-59.82,22.84,0,20.31,349.46-23,349.46-23S1000.13,1455,940,1452.2Z"/>
        <path class="cls-3" d="M836.91,1537.23s43.75-14,183.19-18.14S884.76,1543.07,836.91,1537.23Z"/>
      </g>
      <path class="cls-14" d="M1316.16,1387.18s-670.27-776-674.1-776c-1.73,0,117.24-.42,236.78,0,22.6.08,23.69,37.06,66.07,37.06S982.5,611,990,611.72c103.53,0,185,1.33,185,1.33Z"/>
    </g>
    <g id="person">
      <path class="cls-15" d="M1288.51,1175.36s55.59-8.68,73.82,15.47,64.71,100.41,80.2,122.28,79.29,96.93,91.6,118.87,13.7,98.21-16.86,104c-55.59,10.48-87.67-45.49-127.91-88.82S1273.47,1190.27,1288.51,1175.36Z"/>
      <path class="cls-16" d="M1288.51,1175.36s55.59-8.68,73.82,15.47c4.56,6,10.88,15.33,18,26.22,0,0-1.13,43.29,8.85,60.75,36.89,31.15,59.38,43.45,59.38,43.45l12.9,16.8s42.86,192,55.77,197.9c-55.59,10.48-87.67-45.49-127.91-88.82S1273.47,1190.27,1288.51,1175.36Z"/>
      <path class="cls-17" d="M1024,1339.25c-40.27,55.09-24,335.33-24,335.33l51.9-6S1208.74,1260.2,1024,1339.25Z"/>
      <path class="cls-18" d="M1068,728.23s-30.15-17.09-66.68,15.72-59.14,105.13-62.19,156.12,19.5,101.58-9.89,135.07-74.51,72.45-79.29,136.71,41,116.88,53,134.66c4.21,6.25-35.17,84.36-30.43,125.47C876,1462.44,923,1538,923,1538s10,152.24,112.1,101.39c63.45-31.59,92.28-313.74,93-432.68S1172.53,767.19,1068,728.23Z"/>
      <path class="cls-19" d="M1068,728.23s-30.15-17.09-66.68,15.72-59.14,105.13-62.19,156.12,19.5,101.58-9.89,135.07-74.51,72.45-79.29,136.71,41,116.88,53,134.66c4.21,6.25-35.17,84.36-30.43,125.47C876,1462.44,923,1538,923,1538s10,152.24,112.1,101.39c63.45-31.59,92.28-313.74,93-432.68S1172.53,767.19,1068,728.23Z"/>
      <path class="cls-15" d="M968.61,1201.63c-12.26,15.18-20.27,47.89-24.61,80.5-2.44,18.29-44.9,303.56-49.67,334.48s-8.66,72-8.66,72l130.48-16s13.78-95.77,9-63.28,25.52-212.64,33.27-243.63c6.91-27.64,27.49-182.57-27.53-190.2C1024.19,1174.57,987.75,1177.94,968.61,1201.63Z"/>
      <path class="cls-16" d="M968.61,1201.63c-12.26,15.18-20.27,47.89-24.61,80.5-2.44,18.29-44.9,303.56-49.67,334.48s-8.66,72-8.66,72l41.22-4.79,35.79-277.92s41-134.83,78.26-139.1,44.93-83.68-10.09-91.31C1024.19,1174.57,987.75,1177.94,968.61,1201.63Z"/>
      <path class="cls-18" d="M1314.94,966.78s6.38,37.28,9.11,74.24,31,32.4,36.45,73.41-20,74.73-14.58,103,2.74,49.21,31.9,88.4,64.71,94.41,52,143.81l-7.29-17.12s-.91,79.29-12.76,110.27,6.84,72.46,26,73.37c0,0-105.18,36.91-120.76-45.11s-16.24-306.1-77.2-360.91-67.71-192.31-14.85-228.76S1307.65,933.87,1314.94,966.78Z"/>
      <path class="cls-19" d="M1297.62,966.78s6.38,37.28,9.11,74.24,31,32.4,36.45,73.41-20,74.73-14.57,103,18.68,55.14,47.85,94.33,54.38,82.55,41.62,132l-7.29-17.13s-6.54,85.22-18.38,116.2,6.83,72.46,26,73.37c0,0-87.76,34.18-103.35-47.85s-33.64-303.36-94.61-358.17-67.71-192.31-14.85-228.76S1290.33,933.87,1297.62,966.78Z"/>
      <path class="cls-15" d="M1237.74,1060.66l-11.21,96.64s37.82,11.67,62,13.64c9.78.8,20,143,0,175s-43.75,13.56-93-24.66-82.93-150.17-76.55-234.54S1237.74,1060.66,1237.74,1060.66Z"/>
      <path class="cls-16" d="M1237.74,1060.66l-4.07,35.11s-57.69,7.72-57.69,44.64c23.89,10.25,144.2,111.41,19.56,180.84-60,16.86-82.93-150.17-76.55-234.54S1237.74,1060.66,1237.74,1060.66Z"/>
      <path class="cls-20" d="M1294.89,1173.22c6.83,3.51,105.72,187.78,109.36,214s-84.35,248.23-84.35,248.23l-289.05,35.39L1118.21,1500l-57.55-142.18s-15.88-87-29.81-124.66c-15.5-41.92-37.2-51.24-37.2-51.24s12.82-14.35,44.93-20.85,173.64,149.3,199.16,160.23,40.74-16.79,43.48-60.54c2.54-40.74-12.92-88.84-15-95.26a.4.4,0,0,1,.49-.51S1288.05,1169.7,1294.89,1173.22Z"/>
      <path class="cls-17" d="M1404.25,1387.18c3.65,26.19-84.35,248.23-84.35,248.23l-289.05,35.39L1118.21,1500l-36.13-149.47s-23.69-90.92-34.64-121.21-41.24-56.64-41.24-56.64c7.23-4.1,17.82-8.66,32.38-11.61,32.1-6.49,109.57,256.45,135.09,267.39S1400.61,1361,1404.25,1387.18Z"/>
      <path class="cls-15" d="M1129.92,718.89s144.92-5.47,171.35,55.59,31.89,161.32,31,187.75-33.72,98.43-57.41,103.9-112.11,25.52-188.66-21.88-60.15-247.71-31-290.18S1129.92,718.89,1129.92,718.89Z"/>
      <path class="cls-16" d="M1129.92,718.89s144.92-5.47,171.35,55.59c-31,31.9-109.75,36.18-188.89,31.9,0,0-8,44.66-16.18,99.34-4.93,32.86-2.32,71.57,16.52,94.28,44.42,57.52,55.63,84.51,162.12,66.13-23.7,5.46-112.11,25.52-188.66-21.88s-60.15-247.71-31-290.18S1129.92,718.89,1129.92,718.89Z"/>
      <path class="cls-18" d="M1057.92,736.2s39.19,49.22,32.81,121.22-38.27,85.67-20,113.92,73.83,56.51,71.09,119.39.1,45.68.1,45.68,87.4,35.84,93.78,96.7-.92,80-34.64,112.8-66.16,85.71-53.18,107.56c39.41,66.3,29.49,165-32.49,174.07,0,0,3.65-31.89-11.85-37.36,0,0-10.71,21.41-39.19,37.36s-118,11.85-118,11.85,68.78-54.68,115.29-186.83c17-48.41-34.77-52-32.88-96.61s39.26-84.76,40.17-117.57-14-52-38-89.32-101.43-146.27-56.77-228.53S1057.92,736.2,1057.92,736.2Z"/>
      <path class="cls-19" d="M1057.92,736.2s26,26.66,19.6,98.66-58.79,139.44-58.79,139.44,82.62,68.5,79.88,131.39.1,45.67.1,45.67,92.68,25.53,93.64,86.72c.73,45.83-36.68,101.9-70.4,134.73s-16.71,48-3.74,69.83c23.14,39,34.5,154.37-2.87,184.9,0,0,3.65-31.89-11.85-37.36,0,0-33.26,23.23-64.71,33s-92.5,16.18-92.5,16.18,68.78-54.68,115.29-186.83c17-48.41-34.77-52-32.88-96.61s39.26-84.76,40.17-117.57-14-52-38-89.32-101.43-146.27-56.77-228.53S1057.92,736.2,1057.92,736.2Z"/>
      <path class="cls-18" d="M1047.44,728.79s-2,50.7,50.59,54.8S1181.6,763,1181.6,763s19.87,8.21,49.72,7.76c19.22-.29,46.48-11.17,46.48-11.17s19,12.46,26.26,21.61c0,0,9.28-46.9-55.65-70.83S1117.16,677.52,1047.44,728.79Z"/>
      <path class="cls-19" d="M1047.44,728.91s3.59,9.23,13.76,19,26.46,15.44,52.77,17.49c39.19,1.82,64.71-10.48,64.71-10.48s18.2,6.73,50.59,4.06c27.51-2.27,20.58-13.12,20.58-13.12s50.16,7.61,54.21,35.45c0,0,9.28-46.9-55.65-70.82S1117.16,677.65,1047.44,728.91Z"/>
      <path class="cls-15" d="M1458.25,1160.83s-4.69,185.32-6.74,220.18-2.82,119.11,10.17,136.2,58.78,24.79,69.71,18.8,21.19-31.83,26-55.14-6.84-129.93-10.26-167.53-8.88-139.1-17.08-159.78S1461.67,1130.67,1458.25,1160.83Z"/>
      <path class="cls-16" d="M1458.25,1160.83s-4.69,185.32-6.74,220.18-2.82,119.11,10.17,136.2,58.78,24.79,69.71,18.8-32.61-50.42-32.61-50.42-31.64-20.5-35.06-58.1,11.62-261.21,11.62-261.21S1461.67,1130.67,1458.25,1160.83Z"/>
      <path class="cls-15" d="M1466.06,1181.73s-20.79-15.75-29-24.43-20.5-37.4-28.71-48.34-36.91-56.73-34.17-63.57,18.67-10.93,30.18,2.74,18.35,39.56,22.45,38.58,0-55,.68-65.93-6.15-82,5.47-86.12,16.41,4.66,16.41,10.53,5.93,59,12.31,74.74c0,0-2.06-28.54,0-42.89s0-43.81,14.36-43.44,8.88,28.4,10.25,46.86,2.73,37.59,2.73,37.59,5.47-45.8,8.21-52.63,7.29-7.52,11.16-5.47,5.92,19.82,5.24,32.81.13,34.18.13,34.18,9.44-21.88,12.17-31.45,3.42-12.3,8.21-11.62,14.56,4.79,8.31,30.76a217.73,217.73,0,0,0-5.58,50.59s14,34.17,9.2,65.62-12.62,51.26-29,58.1S1466.06,1181.73,1466.06,1181.73Z"/>
      <path class="cls-16" d="M1517,1188.94c-16.41,6.83-51-7.21-51-7.21s-20.79-15.75-29-24.43-20.5-37.4-28.71-48.34-36.91-56.73-34.17-63.57,9.45,18.61,21,32.28c0,0,44.33,70.94,55.2,77.32S1509.52,1188.71,1517,1188.94Z"/>
      <path class="cls-16" d="M1489.18,1017.85c0-3.37,5.68-46.2,8-52.43s7.29-7.52,11.16-5.47c0,0-6.15,6.53-10.86,25.67C1494.62,997.39,1489.18,1017.85,1489.18,1017.85Z"/>
      <path class="cls-16" d="M1513.92,1028.3l6.69-9s18.3-34.78,13.52-35.47-5.47,2-8.21,11.62-12.17,31.45-12.17,31.45"/>
      <path class="cls-16" d="M1461.17,981.42c2.69-14.95,0-48.56,14.86-47.82-10,9-12.76,62.75-12.76,62.75l-1.59,23.58S1460,990.1,1461.17,981.42Z"/>
      <path class="cls-16" d="M1427.49,1020.78c.69-10.93-6.15-82,5.47-86.12-4.4,15.42.46,49.64.46,55.52,0,2.93-5.1,63.54-5.1,63.54"/>
      <path class="cls-9" d="M1404.36,684.25s-90.33-65.62-86.69-96.6,115.76-201.42,144-231.5,61-89.31,136.7-65.62,224.2,143.09,249.72,185,24.58,73.72-41,158.59C1728.2,736.2,1674.94,831,1623,821.87s-123-66.72-123-66.72-77.56,29-125.94,30a15.12,15.12,0,0,1-13-23.46C1394.25,711.35,1404.36,684.25,1404.36,684.25Z"/>
      <path class="cls-12" d="M1696.35,478.42,1670,499.08a39.83,39.83,0,0,0-44.87-27l-100.49,17.86a39.82,39.82,0,0,0-32.24,46.17L1505,607.17a39.81,39.81,0,0,0,46.17,32.23l100.49-17.85a39.82,39.82,0,0,0,32.24-46.17l-1.42-8,31.78,7.91c8.36,2.09,15.53-6,13.82-15.58l-12.77-71.87C1713.55,477.88,1703.44,472.86,1696.35,478.42Z"/>
      <path class="cls-18" d="M1034.06,1137.23s45.57,38.82,36.46,70.58c0,0,21.25-60.29-17.63-83.07,0,0-9.71-41.11-34.32-49.72C1018.57,1075,1054.11,1108.71,1034.06,1137.23Z"/>
      <path class="cls-18" d="M1092,1201.63s41.1,51.22,15.58,103.74-49.27,37.15-21.92,83.39-17.69,92-18.61,117.57-17.34,63.8-44.68,82c0,0,41.92-54.68,37.37-93.87s32.68-55.52,12.3-95.45-17.77-55.84,5-84.09S1112.15,1242.48,1092,1201.63Z"/>
      <path class="cls-16" d="M1435.7,1089.82s19.14,9.12,26,14.59,13.66,26.43,13.66,26.43-4.25-23.4-11.54-29.47S1435.7,1089.82,1435.7,1089.82Z"/>
      <path class="cls-16" d="M1452.71,1026.18s28,1.21,38.88,1.21,33.12,10.33,33.12,10.33-25.82-6.68-33.72-7-41.32,2.43-44.36,0S1452.71,1026.18,1452.71,1026.18Z"/>
      <path class="cls-18" d="M1181.54,854.9s0-8.28-14.5-2.68-31.73,24.61-29,25.92S1161.58,856.72,1181.54,854.9Z"/>
      <path class="cls-18" d="M1269,835.11c6.32-1.25,27.8-4.87,35.55,6.07,0,0-24.84-5-38.74-1.14C1260.77,840,1264.89,835.92,1269,835.11Z"/>
      <path class="cls-18" d="M1192.36,898.43c-.92-5.47-7.49-11.85-22.43-5.92s-21.53,20.51-18.69,28,12.49-6.34,20.24-10.25C1184.57,903.67,1193.29,903.9,1192.36,898.43Z"/>
      <path class="cls-18" d="M1314.08,869.61c0-5.26-7-11.18-21-9.82s-16.27,9.17-15.6,12.84c1.31,7.31,4.78,5.87,15.6,2C1298.79,872.65,1314.08,874.88,1314.08,869.61Z"/>
      <path class="cls-16" d="M1249,879.9s26.64,21.87,28.81,34.63-11.19,30.38-17.26,32.66-1.64-4.55,3-13.59,5.45-14.07,5.52-19.83-19.68-25.74-21.26-27.49S1244.41,875.92,1249,879.9Z"/>
      <path class="cls-21" d="M1280.27,961.92a2.86,2.86,0,0,0-3.45-1.14c-9.91,3.83-51.31,18.21-61.86,20.51-9.2,2-8.37,13.92-2.14,19.24s30.39,13.51,49.22,7.37c8.13-2.65,14.2-10,17.68-18.26a44.59,44.59,0,0,0,1.74-4.94,42.47,42.47,0,0,0,1.36-6.71C1283.56,971.79,1282.78,966,1280.27,961.92Z"/>
      <path class="cls-22" d="M1225.9,1006.74c10.28,3.21,24.27,5,36.14,1.16,8.13-2.65,6.18-11.13-2.93-11.27S1219.88,1004.86,1225.9,1006.74Z"/>
      <path class="cls-23" d="M1277.3,962.88a2.75,2.75,0,0,0-3.31-1.09c-9.5,3.68-49.19,17.46-59.31,19.67-8.82,1.92-7,14.32-6.59,12.73.62-2.15,49.67-3.86,70-18.75C1282.08,972.5,1279.7,966.75,1277.3,962.88Z"/>
      <path class="cls-16" d="M1263,1021.35s-14.18,2.79-16.89,3.22,6,7.26,11,6.35S1263,1021.35,1263,1021.35Z"/>
      <path class="cls-24" d="M1404.36,684.25s-90.33-65.62-86.69-96.6,115.76-201.42,144-231.5c0,0-60.4,192.76-26,254.85,11.49,20.75,337,69,337,69s-56.31,82.23-95.51,119.14c-24.62,23.19-42,24.38-54.22,22.78-52-9.11-123-66.72-123-66.72s-77.56,29-125.94,30a15.12,15.12,0,0,1-13-23.46C1394.25,711.35,1404.36,684.25,1404.36,684.25Z"/>
    </g>
  </g>
</svg>
