<?xml version="1.0" encoding="utf-8"?>
<!-- Generator: Adobe Illustrator 25.0.0, SVG Export Plug-In . SVG Version: 6.00 Build 0)  -->
<svg version="1.1" id="b4399b83-2ecd-46d4-bd64-e276547eb0bb"
	 xmlns="http://www.w3.org/2000/svg" xmlns:xlink="http://www.w3.org/1999/xlink" x="0px" y="0px" viewBox="0 0 700 600"
	 style="enable-background:new 0 0 853.1 565;" xml:space="preserve">
<style type="text/css">
	.st0{fill:#6C63FF;}
	.st1{fill:#3F3D56;}
	.st2{fill:#FFFFFF;}
	.st3{fill:#F2F2F2;}
	.st4{fill:#A0616A;}
	.st5{fill:#2F2E41;}
</style>
<path class="st0" d="M673,33v76h-2v-0.8H2v0.8H0V33C0,14.8,14.8,0,33,0h607C658.2,0,673,14.8,673,33z"/>
<path class="st1" d="M640,0H33C14.8,0,0,14.8,0,33v434c0,18.2,14.8,33,33,33h607c18.2,0,33-14.8,33-33V33C673,14.8,658.2,0,640,0z
	 M671,467c0,17.1-13.9,31-31,31H33c-17.1,0-31-13.9-31-31V33C2,15.9,15.9,2,33,2h607c17.1,0,31,13.9,31,31V467z"/>
<circle class="st2" cx="136" cy="54.5" r="20"/>
<circle class="st2" cx="537" cy="54.5" r="20"/>
<path class="st0" d="M193.8,277.5h-119c-10.5,0-19-8.5-19-19v-56.2c0-10.5,8.5-19,19-19h119c10.5,0,19,8.5,19,19v56.2
	C212.8,269,204.3,277.5,193.8,277.5z"/>
<path class="st0" d="M396.2,277.5h-119c-10.5,0-19-8.5-19-19v-56.2c0-10.5,8.5-19,19-19h119c10.5,0,19,8.5,19,19v56.2
	C415.2,269,406.7,277.5,396.2,277.5z"/>
<path class="st3" d="M396.2,422.8h-119c-10.8,0-19.6-8.8-19.6-19.6V347c0-10.8,8.8-19.6,19.6-19.6h119c10.8,0,19.6,8.8,19.6,19.6
	v56.2C415.8,414,407,422.8,396.2,422.8z"/>
<path class="st3" d="M193.4,422.8h-119c-10.8,0-19.6-8.8-19.6-19.6V347c0-10.8,8.8-19.6,19.6-19.6h119c10.8,0,19.6,8.8,19.6,19.6
	v56.2C213,414,204.2,422.8,193.4,422.8z"/>
<path class="st3" d="M598.6,422.8h-119c-10.8,0-19.6-8.8-19.6-19.6V347c0-10.8,8.8-19.6,19.6-19.6h119c10.8,0,19.6,8.8,19.6,19.6
	v56.2C618.2,414,609.4,422.8,598.6,422.8z"/>
<path class="st3" d="M598.6,277.6h-119c-10.8,0-19.6-8.8-19.6-19.6v-56.2c0-10.8,8.8-19.6,19.6-19.6h119c10.8,0,19.6,8.8,19.6,19.6
	V258C618.2,268.8,609.4,277.6,598.6,277.6z"/>
<circle class="st2" cx="134.3" cy="230.4" r="32.3"/>
<path class="st0" d="M131.1,242.7c-0.7,0-1.4-0.2-2-0.7l0,0l-7.6-5.8c-1.5-1.1-1.8-3.2-0.6-4.7s3.2-1.8,4.7-0.6l0,0l4.9,3.8
	l11.6-15.1c1.1-1.5,3.2-1.8,4.7-0.6c0,0,0,0,0,0l-0.1,0.1l0.1-0.1c1.5,1.1,1.8,3.2,0.6,4.7l-13.7,17.8
	C133.1,242.2,132.1,242.7,131.1,242.7z"/>
<circle class="st2" cx="337.3" cy="229.9" r="32.3"/>
<path class="st0" d="M334.1,242.2c-0.7,0-1.4-0.2-2-0.7l0,0l-7.6-5.8c-1.5-1.1-1.8-3.2-0.6-4.7s3.2-1.8,4.7-0.6l0,0l4.9,3.8
	l11.6-15.1c1.1-1.5,3.2-1.8,4.7-0.6c0,0,0,0,0,0l-0.1,0.1l0.1-0.1c1.5,1.1,1.8,3.2,0.6,4.7l-13.7,17.8
	C336.1,241.7,335.1,242.2,334.1,242.2z"/>
<path class="st4" d="M555.3,382.1c4-4.4,3.7-11.2-0.7-15.2c-0.5-0.4-1-0.8-1.5-1.2l-18-96.2l-21.9,8.1l24.6,92
	c-2.8,5.2-0.9,11.8,4.3,14.6C546.5,386.8,552,385.9,555.3,382.1L555.3,382.1z"/>
<path class="st4" d="M380.5,235.4c0.1,0.6,0.1,1.2,0,1.8l42.6,32.8l12.1-5l9.9,17.2l-20.5,10.9c-3.4,1.8-7.6,1.1-10.3-1.6
	l-42.6-43.9c-6.1,1.4-12.2-2.5-13.6-8.6c-1.4-6.1,2.5-12.2,8.6-13.6c6.1-1.4,12.2,2.5,13.6,8.6C380.4,234.5,380.5,234.9,380.5,235.4
	L380.5,235.4z"/>
<polygon class="st4" points="480,552.8 467.8,552.8 461.9,515.6 480,515.6 "/>
<path class="st5" d="M483.2,564.7l-39.5,0v-0.5c0-8.5,6.9-15.4,15.4-15.4c0,0,0,0,0,0h0l24.1,0L483.2,564.7z"/>
<polygon class="st4" points="526,552.8 513.8,552.8 507.9,515.6 526,515.6 "/>
<path class="st5" d="M529.2,564.7l-39.5,0v-0.5c0-8.5,6.9-15.4,15.4-15.4c0,0,0,0,0,0h0l24.1,0L529.2,564.7z"/>
<path class="st5" d="M465.2,545.5c-2.3,0-4.3-1.8-4.5-4.1l-10.7-143.7l0.5,0l73.5-6l0,0.5L530,541c0.1,2.5-1.8,4.6-4.3,4.7
	c-0.1,0-0.1,0-0.2,0H511c-2.2,0-4.1-1.6-4.4-3.8L487,421.6c0-0.3-0.3-0.5-0.6-0.4c-0.2,0-0.4,0.2-0.4,0.5l-0.9,118.7
	c0,2.4-1.9,4.3-4.3,4.5l-15.4,0.6C465.4,545.5,465.3,545.5,465.2,545.5z"/>
<circle class="st4" cx="477.8" cy="191.6" r="24.6"/>
<path class="st1" d="M482.5,406.9c-10.7,0-21.4-1.5-31.8-4.3c-2.1-0.6-3.4-2.6-3.2-4.7c3.3-49.7,4.1-88.3-2.9-114.9
	c-3-11.4-1.6-23.3,3.7-32.9c8-14.3,22.7-23,38.3-22.7l0,0c0.7,0,1.5,0,2.3,0.1c23.8,1.2,42.3,22.7,41.3,47.9l-4.8,120.2
	c0,1.8-1.1,3.4-2.8,4C509.8,404.4,496.2,406.9,482.5,406.9z"/>
<path class="st1" d="M448.7,292.1l-18.4-22.5c-2-2.5-1.6-6.1,0.8-8.1c0.2-0.2,0.5-0.3,0.7-0.5l24.9-14.9c6.9-5.5,17-4.5,22.5,2.4
	c5.5,6.9,4.5,16.9-2.3,22.4l-19.5,21.4c-2.1,2.4-5.8,2.5-8.1,0.4C449.1,292.6,448.9,292.4,448.7,292.1L448.7,292.1z"/>
<path class="st1" d="M506.6,289.3c-1.5-0.7-2.7-2-3.2-3.6l-8.3-27.7c-3.7-8-0.3-17.5,7.7-21.3c8-3.7,17.5-0.3,21.2,7.6l16,24.2
	c1.8,2.7,1,6.2-1.6,8c-0.2,0.2-0.5,0.3-0.7,0.4l-26.4,12.3C509.9,290,508.1,290,506.6,289.3z"/>
<path class="st5" d="M489.9,211.7l-18.2-4.2c-1.9-0.4-4.1-1.2-4.4-3.2c-0.3-2.6,3.3-4.4,3-6.9c-0.3-2.5-3.7-2.8-6.1-3.5
	c-4.6-1.6-7.2-6.6-5.7-11.3c-2.6,3.7-8.5,4-11.9,1s-4-8.3-2-12.3c2.2-4,6.2-6.7,10.7-7.2c4.5-0.5,9,0.3,13,2.4c0.3-2.8,3.8-4,6.7-4
	c12.1,0.1,22.8,7.9,26.6,19.4c3.5,11.3,1.2,23.6-8.6,30.2L489.9,211.7z"/>
<path class="st1" d="M673.3,565h-381c-0.6,0-1-0.4-1-1s0.4-1,1-1h381c0.6,0,1,0.4,1,1S673.8,565,673.3,565z"/>
</svg>
