<svg id="Group_1" data-name="Group 1" xmlns="http://www.w3.org/2000/svg" width="775.545" height="674.792" viewBox="0 0 775.545 674.792">
  <ellipse id="Ellipse_1" data-name="Ellipse 1" cx="103.666" cy="7.907" rx="103.666" ry="7.907" transform="translate(568.212 658.979)" fill="#5643cc"/>
  <path id="Path_2" data-name="Path 2" d="M924.275,553.125,914.25,581.09a9.762,9.762,0,0,0,4.13,11.643h0a9.762,9.762,0,0,0,14.761-7.259l3.182-28.333,24.1-79.648-20.749-10.04Z" transform="translate(-212.228 -112.604)" fill="#a0616a"/>
  <path id="Path_3" data-name="Path 3" d="M703.681,651.689h14.725V508.456l-33.466-.669Z" fill="#a0616a"/>
  <path id="Path_4" data-name="Path 4" d="M638.088,651.689h14.725V508.456l-33.465-.669Z" fill="#a0616a"/>
  <path id="Path_5" data-name="Path 5" d="M932.976,636.12,894.825,632.1l-8.032-42.167-14.725,42.836-45.513-4.685L845.3,557.141c34.257-23.278,66.793-22.769,97.72,0Z" transform="translate(-212.228 -112.604)" fill="#2f2e41"/>
  <path id="Path_6" data-name="Path 6" d="M868.293,770.393a11.958,11.958,0,0,1-13.472,13.332l-27.126-3.679a9.271,9.271,0,0,1-7.733-10.57h0a9.271,9.271,0,0,1,9.163-7.861H833.6l14.715-13.407c.145,9.132,6.87,7.1,17.985,6.213Z" transform="translate(-212.228 -112.604)" fill="#2f2e41"/>
  <path id="Path_7" data-name="Path 7" d="M933.885,770.393a11.958,11.958,0,0,1-13.472,13.332l-27.127-3.679a9.271,9.271,0,0,1-7.733-10.57h0a9.271,9.271,0,0,1,9.163-7.861h4.473L913.9,748.209c.145,9.132,6.87,7.1,17.985,6.213Z" transform="translate(-212.228 -112.604)" fill="#2f2e41"/>
  <circle id="Ellipse_2" data-name="Ellipse 2" cx="23.593" cy="23.593" r="23.593" transform="translate(645.786 232.699)" fill="#a0616a"/>
  <path id="Path_8" data-name="Path 8" d="M699.331,295.949l-29.45,2.678v-26.1l15.394-9.37Z" fill="#a0616a"/>
  <path id="Path_9" data-name="Path 9" d="M946.362,567.18c-29.627-21.695-65.2-19.49-104.413-2.677,17.765-50.292,25.333-97.162,11.378-136.813a31.545,31.545,0,0,1,23.727-30.562l5.053-1.293,24.765,1.339,23.255,13.632a31.658,31.658,0,0,1,15.648,27.167Z" transform="translate(-212.228 -112.604)" fill="#e6e6e6"/>
  <path id="Path_10" data-name="Path 10" d="M831.91,547.77l-10.025,27.965a9.762,9.762,0,0,0,4.13,11.643h0a9.762,9.762,0,0,0,14.761-7.259l3.182-28.333,24.1-79.648L847.3,462.1Z" transform="translate(-212.228 -112.604)" fill="#a0616a"/>
  <path id="Path_11" data-name="Path 11" d="M965.772,492.887h-32.8V412.569h0a45.246,45.246,0,0,1,22.311,30.273Z" transform="translate(-212.228 -112.604)" fill="#e6e6e6"/>
  <path id="Path_12" data-name="Path 12" d="M863.618,356.122a9.606,9.606,0,0,1-9.119-.493,7.269,7.269,0,0,1-2.9-8.333c.995-2.558,3.512-4.159,5.955-5.411a60.1,60.1,0,0,1,17.126-5.721c2.844-.492,5.855-.763,8.543.289,1.33.52,2.522,1.344,3.842,1.888,2.427,1,5.135,1.006,7.7,1.549a18.8,18.8,0,0,1,12.487,9.356,22.652,22.652,0,0,1,1.933,5.074,29.2,29.2,0,0,1-.047,14.694c-2.02,7.626-7.162,14.633-6.7,22.509-3.8-2.214-5.582-6.721-8.757-9.767a14.411,14.411,0,0,0-8.661-3.923,4.581,4.581,0,0,1-2.529-.644,3.947,3.947,0,0,1-1.1-1.989L877.819,364c-.728-2.28-1.607-4.757-3.664-5.979a9.219,9.219,0,0,0-4.091-.994,62.293,62.293,0,0,0-10.215.1" transform="translate(-212.228 -112.604)" fill="#2f2e41"/>
  <path id="Path_13" data-name="Path 13" d="M871.4,478.162l-38.151-14.725,17.326-46.683a30.136,30.136,0,0,1,26.18-19.579h0Z" transform="translate(-212.228 -112.604)" fill="#e6e6e6"/>
  <path id="Path_14" data-name="Path 14" d="M666.153,612.384h-419a7.508,7.508,0,0,1-7.5-7.5v-457a7.508,7.508,0,0,1,7.5-7.5h419a7.508,7.508,0,0,1,7.5,7.5v457A7.508,7.508,0,0,1,666.153,612.384Zm-419-469a4.5,4.5,0,0,0-4.5,4.5v457a4.5,4.5,0,0,0,4.5,4.5h419a4.5,4.5,0,0,0,4.5-4.5v-457a4.5,4.5,0,0,0-4.5-4.5Z" transform="translate(-212.228 -112.604)" fill="#e6e6e6"/>
  <circle id="Ellipse_3" data-name="Ellipse 3" cx="9.843" cy="9.843" r="9.843" transform="translate(111.545 178.44)" fill="#e6e6e6"/>
  <circle id="Ellipse_4" data-name="Ellipse 4" cx="9.843" cy="9.843" r="9.843" transform="translate(152.558 178.44)" fill="#e6e6e6"/>
  <path id="Path_21" data-name="Path 21" d="M9.843,0A9.843,9.843,0,1,1,0,9.843,9.843,9.843,0,0,1,9.843,0Z" transform="translate(193.57 178.44)" fill="#5643cc"/>
  <path id="Path_20" data-name="Path 20" d="M9.843,0A9.843,9.843,0,1,1,0,9.843,9.843,9.843,0,0,1,9.843,0Z" transform="translate(234.583 178.44)" fill="#5643cc"/>
  <circle id="Ellipse_7" data-name="Ellipse 7" cx="9.843" cy="9.843" r="9.843" transform="translate(275.595 178.44)" fill="#5643cc"/>
  <circle id="Ellipse_8" data-name="Ellipse 8" cx="9.843" cy="9.843" r="9.843" transform="translate(316.608 178.44)" fill="#e6e6e6"/>
  <circle id="Ellipse_9" data-name="Ellipse 9" cx="9.843" cy="9.843" r="9.843" transform="translate(357.621 178.44)" fill="#e6e6e6"/>
  <circle id="Ellipse_10" data-name="Ellipse 10" cx="9.843" cy="9.843" r="9.843" transform="translate(111.545 209.61)" fill="#e6e6e6"/>
  <circle id="Ellipse_11" data-name="Ellipse 11" cx="9.843" cy="9.843" r="9.843" transform="translate(152.558 209.61)" fill="#e6e6e6"/>
  <circle id="Ellipse_12" data-name="Ellipse 12" cx="9.843" cy="9.843" r="9.843" transform="translate(193.57 209.61)" fill="#e6e6e6"/>
  <circle id="Ellipse_13" data-name="Ellipse 13" cx="9.843" cy="9.843" r="9.843" transform="translate(234.583 209.61)" fill="#e6e6e6"/>
  <circle id="Ellipse_14" data-name="Ellipse 14" cx="9.843" cy="9.843" r="9.843" transform="translate(275.595 209.61)" fill="#e6e6e6"/>
  <circle id="Ellipse_15" data-name="Ellipse 15" cx="9.843" cy="9.843" r="9.843" transform="translate(316.608 209.61)" fill="#e6e6e6"/>
  <circle id="Ellipse_16" data-name="Ellipse 16" cx="9.843" cy="9.843" r="9.843" transform="translate(357.621 209.61)" fill="#e6e6e6"/>
  <path id="Path_22" data-name="Path 22" d="M9.843,0A9.843,9.843,0,1,1,0,9.843,9.843,9.843,0,0,1,9.843,0Z" transform="translate(111.545 240.779)" fill="#5643cc"/>
  <path id="Path_23" data-name="Path 23" d="M9.843,0A9.843,9.843,0,1,1,0,9.843,9.843,9.843,0,0,1,9.843,0Z" transform="translate(152.558 240.779)" fill="#5643cc"/>
  <path id="Path_25" data-name="Path 25" d="M9.843,0A9.843,9.843,0,1,1,0,9.843,9.843,9.843,0,0,1,9.843,0Z" transform="translate(193.57 240.779)" fill="#5643cc"/>
  <circle id="Ellipse_20" data-name="Ellipse 20" cx="9.843" cy="9.843" r="9.843" transform="translate(234.583 240.779)" fill="#e6e6e6"/>
  <circle id="Ellipse_21" data-name="Ellipse 21" cx="9.843" cy="9.843" r="9.843" transform="translate(275.595 240.779)" fill="#e6e6e6"/>
  <circle id="Ellipse_22" data-name="Ellipse 22" cx="9.843" cy="9.843" r="9.843" transform="translate(316.608 240.779)" fill="#e6e6e6"/>
  <circle id="Ellipse_23" data-name="Ellipse 23" cx="9.843" cy="9.843" r="9.843" transform="translate(357.621 240.779)" fill="#e6e6e6"/>
  <circle id="Ellipse_24" data-name="Ellipse 24" cx="9.843" cy="9.843" r="9.843" transform="translate(111.545 271.949)" fill="#e6e6e6"/>
  <circle id="Ellipse_25" data-name="Ellipse 25" cx="9.843" cy="9.843" r="9.843" transform="translate(152.558 271.949)" fill="#e6e6e6"/>
  <circle id="Ellipse_26" data-name="Ellipse 26" cx="9.843" cy="9.843" r="9.843" transform="translate(111.545 303.119)" fill="#e6e6e6"/>
  <circle id="Ellipse_27" data-name="Ellipse 27" cx="9.843" cy="9.843" r="9.843" transform="translate(152.558 303.119)" fill="#e6e6e6"/>
  <circle id="Ellipse_28" data-name="Ellipse 28" cx="9.843" cy="9.843" r="9.843" transform="translate(193.57 303.119)" fill="#e6e6e6"/>
  <circle id="Ellipse_29" data-name="Ellipse 29" cx="9.843" cy="9.843" r="9.843" transform="translate(193.57 271.949)" fill="#e6e6e6"/>
  <path id="Path_24" data-name="Path 24" d="M9.843,0A9.843,9.843,0,1,1,0,9.843,9.843,9.843,0,0,1,9.843,0Z" transform="translate(234.583 271.949)" fill="#5643cc"/>
  <circle id="Ellipse_31" data-name="Ellipse 31" cx="9.843" cy="9.843" r="9.843" transform="translate(275.595 271.949)" fill="#5643cc"/>
  <circle id="Ellipse_32" data-name="Ellipse 32" cx="9.843" cy="9.843" r="9.843" transform="translate(316.608 271.949)" fill="#5643cc"/>
  <circle id="Ellipse_33" data-name="Ellipse 33" cx="9.843" cy="9.843" r="9.843" transform="translate(357.621 271.949)" fill="#e6e6e6"/>
  <path id="Path_40" data-name="Path 40" d="M382.142,213.883a5.946,5.946,0,1,0,0,11.893H531.228a5.947,5.947,0,0,0,.2-11.892q-.1,0-.2,0Z" transform="translate(-212.228 -112.604)" fill="#3f3d56"/>
  <path id="Path_15" data-name="Path 15" d="M565.037,212.227a1.17,1.17,0,0,0,0,1.655l5.023,5.023H557.674a1.17,1.17,0,0,0,0,2.34h12.386l-5.023,5.023a1.17,1.17,0,1,0,1.655,1.655l7.02-7.02a1.17,1.17,0,0,0,0-1.655l-7.02-7.02a1.17,1.17,0,0,0-1.655,0Z" transform="translate(-212.228 -112.604)" fill="#e6e6e6"/>
  <path id="Path_16" data-name="Path 16" d="M348.27,212.227a1.17,1.17,0,0,1,0,1.655l-5.023,5.023h12.386a1.17,1.17,0,1,1,0,2.34H343.247l5.023,5.023a1.17,1.17,0,0,1-1.655,1.655l-7.02-7.02a1.17,1.17,0,0,1,0-1.655l7.02-7.02a1.17,1.17,0,0,1,1.655,0Z" transform="translate(-212.228 -112.604)" fill="#e6e6e6"/>
  <path id="Path_17" data-name="Path 17" d="M373.808,498.231a21.327,21.327,0,0,0,0,42.653H539.5a21.327,21.327,0,0,0,0-42.653Z" transform="translate(-212.228 -112.604)" fill="#e6e6e6"/>
  <path id="Path_18" data-name="Path 18" d="M246.5,181.149a34.272,34.272,0,1,1,34.272-34.272A34.272,34.272,0,0,1,246.5,181.149Z" transform="translate(-212.228 -112.604)" fill="#5643cc"/>
  <path id="Path_19" data-name="Path 19" d="M260.023,143.5H249.881V133.353a3.381,3.381,0,0,0-6.762,0V143.5H232.977a3.381,3.381,0,0,0,0,6.762h10.142V160.4a3.381,3.381,0,1,0,6.762,0V150.257h10.142a3.381,3.381,0,1,0,0-6.762Z" transform="translate(-212.228 -112.604)" fill="#fff"/>
</svg>
