<svg id="Layer_1" data-name="Layer 1" xmlns="http://www.w3.org/2000/svg" xmlns:xlink="http://www.w3.org/1999/xlink" viewBox="0 0 250 406"><defs><style>.cls-1{fill:url(#linear-gradient);}</style><linearGradient id="linear-gradient" x1="725" y1="578" x2="725" y2="172" gradientUnits="userSpaceOnUse"><stop offset="0" stop-color="#ac5fcf"/><stop offset="1" stop-color="#4b2fb7"/></linearGradient></defs><path class="cls-1" d="M775,172H675a75,75,0,0,0-75,75V503a75,75,0,0,0,75,75H775a75,75,0,0,0,75-75V247A75,75,0,0,0,775,172Zm71,327.66c0,40.51-32.37,73.34-72.3,73.34H677.3c-39.93,0-72.3-32.83-72.3-73.34V249.34c0-40.51,32.37-73.34,72.3-73.34h96.4c39.93,0,72.3,32.83,72.3,73.34Z" transform="translate(-600 -172)"/></svg>