<?xml version="1.0" encoding="UTF-8"?><svg xmlns="http://www.w3.org/2000/svg" viewBox="0 0 1000 1000" x="0px" y="0px" width="1000px" height="1000px" version="1.1" xmlns:xlink="http://www.w3.org/1999/xlink"><g style="isolation:isolate"><g id="Layer_1" data-name="Layer 1"><path d="M253.854,424.285H191.993a3,3,0,0,1,0-6h58.861V390.354a3,3,0,1,1,6,0v30.931A3,3,0,0,1,253.854,424.285Z" fill="#8dc6bf"/><path d="M315.717,424.285H253.854a3,3,0,0,1-3-3V390.354a3,3,0,1,1,6,0v27.931h58.863a3,3,0,0,1,0,6Z" fill="#8dc6bf"/><path d="M284.786,455.216H222.924a3,3,0,0,1-3-3V421.285a3,3,0,0,1,3-3h61.862a3,3,0,0,1,3,3v30.931A3,3,0,0,1,284.786,455.216Zm-58.862-6h55.862V424.285H225.924Z" fill="#8dc6bf"/>

<path d="M271.431,486.146H253.854a3,3,0,0,1-3-3v-30.93a3,3,0,0,1,3-3h61.863a3,3,0,0,1,0,6H256.854v24.93h14.577a3,3,0,0,1,0,6Z" fill="#8dc6bf"/><path d="M253.854,486.146H203.692a3,3,0,1,1,0-6h47.162v-24.93H191.993a3,3,0,0,1,0-6h61.861a3,3,0,0,1,3,3v30.93A3,3,0,0,1,253.854,486.146Z" fill="#8dc6bf"/><path d="M222.924,455.216H191.993a3,3,0,0,1,0-6h27.931V424.285H170.905a3,3,0,0,1,0-6h52.019a3,3,0,0,1,3,3v30.931A3,3,0,0,1,222.924,455.216Z" fill="#8dc6bf"/><path d="M329.427,455.216H284.786a3,3,0,0,1-3-3V421.285a3,3,0,0,1,3-3h21.443a3,3,0,0,1,0,6H287.786v24.931h41.641a3,3,0,0,1,0,6Z" fill="#8dc6bf"/><path d="M756.477,416H694.616a3,3,0,0,1,0-6h58.861V382.069a3,3,0,0,1,6,0V413A3,3,0,0,1,756.477,416Z" fill="#8dc6bf"/><path d="M818.34,416H756.477a3,3,0,0,1-3-3V382.069a3,3,0,0,1,6,0V410H818.34a3,3,0,1,1,0,6Z" fill="#8dc6bf"/><path d="M787.409,446.931H725.547a3,3,0,0,1-3-3V413a3,3,0,0,1,3-3h61.862a3,3,0,0,1,3,3v30.931A3,3,0,0,1,787.409,446.931Zm-58.862-6h55.862V416H728.547Z" fill="#8dc6bf"/><path d="M718.263,322.132h-30.93a3,3,0,0,1,0-6h27.93V291.2H666.246a3,3,0,0,1,0-6h52.017a3,3,0,0,1,3,3v30.931A3,3,0,0,1,718.263,322.132Z" fill="#8dc6bf"/><path d="M832.051,446.931H787.409a3,3,0,0,1-3-3V413a3,3,0,0,1,3-3h21.443a3,3,0,0,1,0,6H790.409v24.931h41.642a3,3,0,0,1,0,6Z" fill="#8dc6bf"/><rect x="233.466" y="524" width="54" height="22" fill="#6da580"/><path d="M287.466,551h-54a5,5,0,0,1-5-5V524a5,5,0,0,1,5-5h54a5,5,0,0,1,5,5v22A5,5,0,0,1,287.466,551Zm-49-10h44V529h-44Z" fill="#313031"/><circle cx="382.609" cy="544.5" r="40" fill="#0bc6d5"/><path d="M367.942,544.5a40.006,40.006,0,0,1,27.334-37.94,40,40,0,1,0,0,75.88A40.006,40.006,0,0,1,367.942,544.5Z" fill="#0bc6d5" opacity="0.74" style="mix-blend-mode:multiply"/><path d="M382.609,589.5a45,45,0,1,1,45-45A45.051,45.051,0,0,1,382.609,589.5Zm0-80a35,35,0,1,0,35,35A35.04,35.04,0,0,0,382.609,509.5Z" fill="#313031"/><path d="M382.609,506.167a7,7,0,0,1-7-7V413a7,7,0,0,1,14,0v86.167A7,7,0,0,1,382.609,506.167Z" fill="#313031"/><path d="M446.167,441.75H319.052a5,5,0,0,1-4.9-5.98l18.159-90.8a5,5,0,0,1,4.9-4.02h90.8a5,5,0,0,1,4.9,4.02l18.159,90.8a5,5,0,0,1-4.9,5.98Zm-121.016-10H440.068l-16.159-80.8h-82.6Z" fill="#313031"/><polygon points="446.166 436.75 319.052 436.75 337.211 345.954 428.007 345.954 446.166 436.75" fill="#f0f4f7"/><polygon points="337.211 345.954 319.052 436.75 365.249 436.75 375.31 345.954 337.211 345.954" fill="#dbdbdb"/><path d="M446.167,441.75H319.052a5,5,0,0,1-4.9-5.98l18.159-90.8a5,5,0,0,1,4.9-4.02h90.8a5,5,0,0,1,4.9,4.02l18.159,90.8a5,5,0,0,1-4.9,5.98Zm-121.016-10H440.068l-16.159-80.8h-82.6Z" fill="#313031"/><path d="M412.833,463.667a2,2,0,0,1-2-2V436.75a2,2,0,0,1,4,0v24.917A2,2,0,0,1,412.833,463.667Z" fill="#313031"/><path d="M412.833,479.417a9.875,9.875,0,1,1,9.875-9.875A9.886,9.886,0,0,1,412.833,479.417Zm0-15.75a5.875,5.875,0,1,0,5.875,5.875A5.881,5.881,0,0,0,412.833,463.667Z" fill="#313031"/><circle cx="412.833" cy="469.542" r="7.875" fill="#313031"/><path d="M250.167,731h-32a5,5,0,0,1-5-5V706a5,5,0,0,1,5-5h32a5,5,0,0,1,5,5v20A5,5,0,0,1,250.167,731Zm-27-10h22V711h-22Z" fill="#313031"/><rect x="218.166" y="706" width="32" height="20" fill="#313031"/><path d="M413.167,731h-32a5,5,0,0,1-5-5V706a5,5,0,0,1,5-5h32a5,5,0,0,1,5,5v20A5,5,0,0,1,413.167,731Zm-27-10h22V711h-22Z" fill="#313031"/><rect x="381.166" y="706" width="32" height="20" fill="#313031"/><path d="M606.833,427.327h131a0,0,0,0,1,0,0V625.673a0,0,0,0,1,0,0h-131a52,52,0,0,1-52-52V479.327A52,52,0,0,1,606.833,427.327Z" transform="translate(1172.833 -119.833) rotate(90)" fill="#ffc857"/><path d="M693.506,436H599.16a52,52,0,0,0-52,52v12.167a52,52,0,0,1,52-52h94.346a52,52,0,0,1,52,52V488A52,52,0,0,0,693.506,436Z" fill="#ffc857" opacity="0.6" style="mix-blend-mode:screen"/><path d="M745.507,623H547.16a5,5,0,0,1-5-5V487a57.064,57.064,0,0,1,57-57h94.347a57.065,57.065,0,0,1,57,57V618A5,5,0,0,1,745.507,623ZM552.16,613H740.507V487a47.053,47.053,0,0,0-47-47H599.16a47.053,47.053,0,0,0-47,47Z" fill="#313031"/><rect x="194.167" y="626" width="244" height="80" fill="#7c4f49"/><g opacity="0.24" style="mix-blend-mode:multiply"><rect x="278.167" y="661" width="69.442" height="19.167" rx="5" fill="#7c4f49"/></g><rect x="194.167" y="626.583" width="244" height="9.667" fill="#7c4f49" opacity="0.54" style="mix-blend-mode:screen"/><rect x="194.167" y="696.167" width="244" height="9.667" fill="#7c4f49" opacity="0.24" style="mix-blend-mode:multiply"/><path d="M438.167,711h-244a5,5,0,0,1-5-5V626a5,5,0,0,1,5-5h244a5,5,0,0,1,5,5v80A5,5,0,0,1,438.167,711Zm-239-10h234V631h-234Z" fill="#313031"/><rect x="194.167" y="546" width="244" height="80" fill="#7c4f49"/><g opacity="0.24" style="mix-blend-mode:multiply"><rect x="278.167" y="581" width="69.442" height="19.167" rx="5" fill="#7c4f49"/></g><rect x="194.167" y="616" width="244" height="9.667" fill="#7c4f49" opacity="0.24" style="mix-blend-mode:multiply"/><rect x="194.167" y="546" width="244" height="9.667" fill="#7c4f49" opacity="0.54" style="mix-blend-mode:screen"/><path d="M438.167,631h-244a5,5,0,0,1-5-5V546a5,5,0,0,1,5-5h244a5,5,0,0,1,5,5v80A5,5,0,0,1,438.167,631Zm-239-10h234V551h-234Z" fill="#313031"/><path d="M752.333,546.583h22a16,16,0,0,1,16,16v144a0,0,0,0,1,0,0h-54a0,0,0,0,1,0,0v-144A16,16,0,0,1,752.333,546.583Z" fill="#ffc857"/><path d="M774.333,546h-22a16,16,0,0,0-16,16v10a16,16,0,0,1,16-16h22a16,16,0,0,1,16,16V562A16,16,0,0,0,774.333,546Z" fill="#ffc857" opacity="0.6" style="mix-blend-mode:screen"/><path d="M790.333,711h-54a5,5,0,0,1-5-5V562a21.024,21.024,0,0,1,21-21h22a21.024,21.024,0,0,1,21,21V706A5,5,0,0,1,790.333,711Zm-49-10h44V562a11.013,11.013,0,0,0-11-11h-22a11.012,11.012,0,0,0-11,11Z" fill="#313031"/><rect x="581.631" y="237.597" width="120" height="164" transform="translate(961.228 -322.033) rotate(90)" fill="#fff"/><path d="M723.631,384.6h-164a5,5,0,0,1-5-5v-120a5,5,0,0,1,5-5h164a5,5,0,0,1,5,5v120A5,5,0,0,1,723.631,384.6Zm-159-10h154v-110h-154Z" fill="#313031"/><rect x="575.63" y="275.597" width="132" height="88" fill="#c6c6c6"/><path d="M707.631,366.6h-132a3,3,0,0,1-3-3v-88a3,3,0,0,1,3-3h132a3,3,0,0,1,3,3v88A3,3,0,0,1,707.631,366.6Zm-129-6h126v-82h-126Z" fill="#313031"/><polygon points="599.362 345.954 620.313 309.667 641.264 345.954 599.362 345.954" fill="#313031"/><path d="M641.263,347.954h-41.9a2,2,0,0,1-1.732-3l20.951-36.287a2,2,0,0,1,1.732-1h0a2,2,0,0,1,1.733,1L643,344.954a2,2,0,0,1-1.733,3Zm-38.437-4H637.8l-17.487-30.287Z" fill="#313031"/><polygon points="620.313 345.954 644.728 303.667 669.143 345.954 620.313 345.954" fill="#0bc6d5"/><path d="M669.142,347.954H620.313a2,2,0,0,1-1.732-3L643,302.667a2,2,0,0,1,3.465,0l24.414,42.287a2,2,0,0,1-1.733,3Zm-45.365-4h41.9l-20.95-36.287Z" fill="#313031"/><circle cx="678.476" cy="300.333" r="9.333" fill="#ffc857"/><path d="M678.476,311.667a11.334,11.334,0,1,1,11.333-11.334A11.346,11.346,0,0,1,678.476,311.667Zm0-18.667a7.334,7.334,0,1,0,7.333,7.333A7.342,7.342,0,0,0,678.476,293Z" fill="#313031"/><path d="M588.49,262.6a3,3,0,0,1-1.7-5.476l52.02-35.6a3,3,0,0,1,3.389,0l52,35.577a3,3,0,0,1-3.389,4.952l-50.3-34.418-50.327,34.438A2.99,2.99,0,0,1,588.49,262.6Z" fill="#313031"/><path d="M342.609,591H283.167a5,5,0,1,1,0-10h59.442a5,5,0,0,1,0,10Z" fill="#313031"/><path d="M342.609,671H283.167a5,5,0,1,1,0-10h59.442a5,5,0,0,1,0,10Z" fill="#313031"/><rect x="736.333" y="706" width="32" height="20" fill="#313031"/><path d="M768.333,731h-32a5,5,0,0,1-5-5V706a5,5,0,0,1,5-5h32a5,5,0,0,1,5,5v20A5,5,0,0,1,768.333,731Zm-27-10h22V711h-22Z" fill="#313031"/><rect x="524.083" y="706" width="32" height="20" fill="#313031"/><path d="M556.083,731h-32a5,5,0,0,1-5-5V706a5,5,0,0,1,5-5h32a5,5,0,0,1,5,5v20A5,5,0,0,1,556.083,731Zm-27-10h22V711h-22Z" fill="#313031"/><path d="M518.083,546h22a16,16,0,0,1,16,16V706a0,0,0,0,1,0,0h-54a0,0,0,0,1,0,0V562a16,16,0,0,1,16-16Z" fill="#ffc857"/><path d="M540.083,546h-22a16,16,0,0,0-16,16v10a16,16,0,0,1,16-16h22a16,16,0,0,1,16,16V562A16,16,0,0,0,540.083,546Z" fill="#ffc857" opacity="0.6" style="mix-blend-mode:screen"/><path d="M556.083,711h-54a5,5,0,0,1-5-5V562a21.024,21.024,0,0,1,21-21h22a21.024,21.024,0,0,1,21,21V706A5,5,0,0,1,556.083,711Zm-49-10h44V562a11.013,11.013,0,0,0-11-11h-22a11.012,11.012,0,0,0-11,11Z" fill="#313031"/><path d="M631.417,539.5h48.417a0,0,0,0,1,0,0v180a0,0,0,0,1,0,0H631.417a18.583,18.583,0,0,1-18.583-18.583V558.083A18.583,18.583,0,0,1,631.417,539.5Z" transform="translate(1275.833 -16.833) rotate(90)" fill="#ffc857"/><path d="M717.75,596H574.917a18.583,18.583,0,0,0-18.584,18.583v12A18.583,18.583,0,0,1,574.917,608H717.75a18.583,18.583,0,0,1,18.583,18.583v-12A18.583,18.583,0,0,0,717.75,596Z" fill="#ffc857" opacity="0.6" style="mix-blend-mode:screen"/><path d="M736.334,668h-180a5,5,0,0,1-5-5V614.584A23.61,23.61,0,0,1,574.917,591H717.75a23.611,23.611,0,0,1,23.584,23.584V663A5,5,0,0,1,736.334,668Zm-175-10h170V614.584A13.6,13.6,0,0,0,717.75,601H574.917a13.6,13.6,0,0,0-13.583,13.584Z" fill="#313031"/><rect x="627.333" y="592" width="38" height="180" transform="translate(1328.333 35.667) rotate(90)" fill="#ffc857"/><rect x="627.333" y="592" width="38" height="180" transform="translate(1328.333 35.667) rotate(90)" fill="#ffc857"/><rect x="640.333" y="579" width="12" height="180" transform="translate(1315.333 22.667) rotate(90)" fill="#d89e36"/><path d="M736.334,706h-180a5,5,0,0,1-5-5V663a5,5,0,0,1,5-5h180a5,5,0,0,1,5,5v38A5,5,0,0,1,736.334,706Zm-175-10h170V668h-170Z" fill="#313031"/><circle cx="646.75" cy="515.5" r="11" fill="#fff" opacity="0.69" style="mix-blend-mode:screen"/><path d="M646.75,529.5a14,14,0,1,1,14-14A14.015,14.015,0,0,1,646.75,529.5Zm0-22a8,8,0,1,0,8,8A8.009,8.009,0,0,0,646.75,507.5Z" fill="#313031"/><path d="M814.083,731H166.5a5,5,0,0,1,0-10H814.083a5,5,0,1,1,0,10Z" fill="#313031"/><path d="M502.5,779.577H423.305a5,5,0,0,1,0-10H502.5a5,5,0,0,1,0,10Z" fill="#313031"/><path d="M405.818,779.577h-17.3a5,5,0,1,1,0-10h17.3a5,5,0,0,1,0,10Z" fill="#313031"/><path d="M845.75,731h-13.7a5,5,0,1,1,0-10h13.7a5,5,0,0,1,0,10Z" fill="#313031"/><ellipse cx="414.875" cy="465.417" rx="2.042" ry="1.75" fill="#dbdbdb"/></g></g></svg>