<svg id="Layer_1" data-name="Layer 1" xmlns="http://www.w3.org/2000/svg" xmlns:xlink="http://www.w3.org/1999/xlink" viewBox="0 0 96.85 98.93"><defs><style>.cls-1{fill:url(#linear-gradient);}.cls-2{fill:url(#linear-gradient-2);}</style><linearGradient id="linear-gradient" x1="-340.39" y1="177.14" x2="-339.63" y2="176.39" gradientTransform="matrix(74.53, 0, 0, -74.53, 25396.04, 13228.36)" gradientUnits="userSpaceOnUse"><stop offset="0" stop-color="#aff0d0"/><stop offset="1" stop-color="#9894e1"/></linearGradient><linearGradient id="linear-gradient-2" x1="-342.21" y1="178.49" x2="-341.45" y2="177.75" gradientTransform="matrix(125.66, 0, 0, -128.35, 43011.01, 22916.68)" xlink:href="#linear-gradient"/></defs><g id="Time_Management" data-name="Time Management"><path id="Path_16" data-name="Path 16" class="cls-1" d="M56.49,25.81A28.73,28.73,0,1,0,85.21,54.54h0A28.72,28.72,0,0,0,56.49,25.81ZM31,52.94h3.19a1.6,1.6,0,1,1,0,3.19H31a1.6,1.6,0,0,1,0-3.19Zm4.21,15.75a1.6,1.6,0,1,1,.59-2.19,1.6,1.6,0,0,1-.59,2.19Zm.58-26.12a1.6,1.6,0,1,1-.68-2.15l.06,0a1.6,1.6,0,0,1,.62,2.12Zm32.1-10.95A1.16,1.16,0,1,0,69,32.77a1.17,1.17,0,0,0-1.16-1.15ZM54.89,29a1.6,1.6,0,0,1,3.19,0v3.19a1.6,1.6,0,1,1-3.19,0h0ZM45.11,77.45a1.6,1.6,0,1,1-.59-2.19,1.6,1.6,0,0,1,.59,2.19Zm-.59-43.66a1.58,1.58,0,0,1-2.2-.49A1.59,1.59,0,1,1,45,31.59l0,.06a1.6,1.6,0,0,1-.53,2.14ZM58.09,80.07a1.6,1.6,0,0,1-3.19,0v-3.2a1.6,1.6,0,0,1,3.19,0Zm12-2a1.58,1.58,0,0,1-2.2-.49,1.59,1.59,0,1,1,2.69-1.71l0,.06A1.58,1.58,0,0,1,70.05,78Zm-.79-21.89c-13.54,0-8.62-.36-11.17,1.17v2a1.6,1.6,0,1,1-3.19,0v-2a3.45,3.45,0,0,1-1.17-1.17h-2a1.6,1.6,0,0,1,0-3.19h2c1.59-2.74,1.16,3.19,1.16-14.36a1.6,1.6,0,0,1,3.19,0v13.2c2.54,1.51-2.34,1.16,11.17,1.16a1.6,1.6,0,1,1,0,3.19Zm12.76,0H78.83a1.6,1.6,0,1,1,0-3.19H82a1.6,1.6,0,1,1,0,3.19ZM77.81,40.38a1.6,1.6,0,1,1-.59,2.19,1.6,1.6,0,0,1,.59-2.19ZM77.23,66.5a1.6,1.6,0,1,1,.68,2.16l-.06,0a1.6,1.6,0,0,1-.62-2.12Z" transform="translate(-8.06 -5.07)"/><path id="Path_17" data-name="Path 17" class="cls-2" d="M96.68,44.23l8.24-4.79L93.75,20.1,85.5,24.89A41.43,41.43,0,0,0,67.66,14.65V5.07H45.32v9.58A41.5,41.5,0,0,0,27.48,25l-8.25-4.78L8.06,39.5l8.24,4.79a41.61,41.61,0,0,0,0,20.62L8.06,69.69,19.23,89l8.25-4.78A41.58,41.58,0,0,0,45.32,94.43V104H67.66V94.43A41.62,41.62,0,0,0,85.5,84.12l8.25,4.78,11.16-19.33-8.23-4.79a41.8,41.8,0,0,0,0-20.55ZM56.49,86.45A31.91,31.91,0,1,1,88.4,54.54,31.91,31.91,0,0,1,56.49,86.45Z" transform="translate(-8.06 -5.07)"/></g></svg>