<svg xmlns="http://www.w3.org/2000/svg" xmlns:xlink="http://www.w3.org/1999/xlink" width="112.075" height="112.075" viewBox="0 0 112.075 112.075">
  <defs>
    <linearGradient id="linear-gradient" x1="0.016" y1="0.016" x2="1" y2="0.983" gradientUnits="objectBoundingBox">
      <stop offset="0" stop-color="#aff0d0"/>
      <stop offset="1" stop-color="#9894e1"/>
    </linearGradient>
  </defs>
  <g id="User_Experience" data-name="User Experience" transform="translate(-1 -1)">
    <path id="Path_9" data-name="Path 9" d="M76.268,100.421v5.423a1.808,1.808,0,0,1-1.808,1.808H20.231a1.808,1.808,0,0,1-1.808-1.808V98.614H13v7.231a7.231,7.231,0,0,0,7.231,7.231H74.46a7.231,7.231,0,0,0,7.231-7.231v-5.73a21.692,21.692,0,0,1-5.423.307ZM13,58.845V69.691h5.423V58.845Zm63.268-7.231v5.423a21.692,21.692,0,0,1,5.423.235V51.614ZM74.46,1H20.231A7.231,7.231,0,0,0,13,8.231V19.077h5.423V8.231a1.808,1.808,0,0,1,1.808-1.808H32.884a1.808,1.808,0,0,1,1.808,1.808A1.808,1.808,0,0,0,36.5,10.038H58.192A1.808,1.808,0,0,0,60,8.231a1.808,1.808,0,0,1,1.808-1.808H74.46a1.808,1.808,0,0,1,1.808,1.808V19.077h5.423V8.231A7.231,7.231,0,0,0,74.46,1ZM38.307,6.423a1.808,1.808,0,1,1,1.808,1.808A1.808,1.808,0,0,1,38.307,6.423Zm14.461,0a1.808,1.808,0,1,1,1.808,1.808A1.808,1.808,0,0,1,52.769,6.423ZM50.961,19.077H72.653V10.038H63.307a5.423,5.423,0,0,1-5.116,3.615H36.5a5.423,5.423,0,0,1-5.116-3.615H22.038v9.038H38.307a1.808,1.808,0,0,1,1.808,1.808V57.037a1.808,1.808,0,0,1-1.808,1.808H22.038V69.691H47.346A1.808,1.808,0,0,1,49.153,71.5V96.806a1.808,1.808,0,0,1-1.808,1.808H22.038v5.423H72.653v-4.3a21.692,21.692,0,0,1,0-42.01v-6.11H50.961a1.808,1.808,0,0,1-1.808-1.808V20.884A1.808,1.808,0,0,1,50.961,19.077Z" transform="translate(9.692)" fill="url(#linear-gradient)"/>
    <path id="Path_10" data-name="Path 10" d="M63.855,56.572a18.077,18.077,0,0,1-20.535,0c.253-.325.163-.181,1.175-3.218a9.6,9.6,0,0,1,18.185,0C63.71,56.446,63.6,56.174,63.855,56.572Z" transform="translate(34.18 37.016)" fill="url(#linear-gradient)"/>
    <path id="Path_11" data-name="Path 11" d="M55.9,43.4v1.645a4.772,4.772,0,1,1-9.544,0V43.4a4.772,4.772,0,1,1,9.544,0Z" transform="translate(36.635 30.392)" fill="url(#linear-gradient)"/>
    <path id="Path_12" data-name="Path 12" d="M70.236,64.464c-1.247-3.615-2.549-7.321-7.393-9.6a9.183,9.183,0,0,0,2.621-7.719,8.388,8.388,0,0,0-16.775,0c0,2.621,0,5.188,2.621,7.737-4.935,2.332-6.273,6.236-7.393,9.581a18.077,18.077,0,1,1,26.32,0Z" transform="translate(30.691 26.648)" fill="url(#linear-gradient)"/>
    <path id="Path_13" data-name="Path 13" d="M1,41V62.692H55.23V41ZM38.961,57.269H10.038a1.808,1.808,0,1,1,0-3.615H38.961a1.808,1.808,0,1,1,0,3.615Zm7.231-7.231H10.038a1.808,1.808,0,1,1,0-3.615H46.192a1.808,1.808,0,1,1,0,3.615Z" transform="translate(0 32.306)" fill="url(#linear-gradient)"/>
    <path id="Path_14" data-name="Path 14" d="M35,13V38.307H85.614V13ZM50.745,29.793a1.808,1.808,0,0,1-1.283,3.091c-1.012,0-.813,0-6.706-5.947a1.808,1.808,0,0,1,0-2.567l5.423-5.423a1.815,1.815,0,0,1,2.567,2.567l-4.158,4.14Zm14.678-8.568c-7.881,11.822-7.429,11.659-8.731,11.659a1.808,1.808,0,0,1-1.5-2.8l7.231-10.846a1.808,1.808,0,0,1,3,1.988ZM77.86,26.937c-5.622,5.622-5.658,5.947-6.706,5.947a1.808,1.808,0,0,1-1.283-3.091l4.158-4.14-4.158-4.14a1.815,1.815,0,0,1,2.567-2.567L77.86,24.37a1.808,1.808,0,0,1,0,2.567Z" transform="translate(27.46 9.692)" fill="url(#linear-gradient)"/>
    <path id="Path_15" data-name="Path 15" d="M4,13V45.538H43.769V13ZM14.846,38.307a1.808,1.808,0,0,1-3.615,0V34.692a1.808,1.808,0,0,1,3.615,0Zm7.231,0a1.808,1.808,0,0,1-3.615,0V27.461a1.808,1.808,0,1,1,3.615,0Zm7.231,0a1.808,1.808,0,0,1-3.615,0V29.269a1.808,1.808,0,1,1,3.615,0Zm7.231,0a1.808,1.808,0,0,1-3.615,0V20.231a1.808,1.808,0,0,1,3.615,0Z" transform="translate(2.423 9.692)" fill="url(#linear-gradient)"/>
  </g>
</svg>
