<svg id="Layer_1" data-name="Layer 1" xmlns="http://www.w3.org/2000/svg" xmlns:xlink="http://www.w3.org/1999/xlink" viewBox="0 0 91.61 94.57"><defs><style>.cls-1{fill:url(#linear-gradient);}.cls-2{fill:url(#linear-gradient-2);}.cls-3{fill:url(#linear-gradient-3);}.cls-4{fill:url(#linear-gradient-4);}.cls-5{fill:url(#linear-gradient-5);}.cls-6{fill:url(#linear-gradient-6);}.cls-7{fill:url(#linear-gradient-7);}.cls-8{fill:url(#linear-gradient-8);}.cls-9{fill:url(#linear-gradient-9);}.cls-10{fill:url(#linear-gradient-10);}.cls-11{fill:url(#linear-gradient-11);}.cls-12{fill:url(#linear-gradient-12);}</style><linearGradient id="linear-gradient" x1="-335.24" y1="123.7" x2="-334.41" y2="122.89" gradientTransform="matrix(30.82, 0, 0, -3.5, 10376.12, 524.32)" gradientUnits="userSpaceOnUse"><stop offset="0" stop-color="#aff0d0"/><stop offset="1" stop-color="#9894e1"/></linearGradient><linearGradient id="linear-gradient-2" x1="-342.16" y1="166.3" x2="-341.33" y2="165.48" gradientTransform="matrix(108.56, 0, 0, -14, 37158.24, 2420.47)" xlink:href="#linear-gradient"/><linearGradient id="linear-gradient-3" x1="-271.93" y1="176.54" x2="-271.1" y2="175.72" gradientTransform="matrix(4, 0, 0, -53, 1173, 9394)" xlink:href="#linear-gradient"/><linearGradient id="linear-gradient-4" x1="-341.77" y1="177.47" x2="-340.94" y2="176.66" gradientTransform="matrix(94.56, 0, 0, -70.05, 32335.24, 12462.5)" xlink:href="#linear-gradient"/><linearGradient id="linear-gradient-5" x1="-243.78" y1="176.54" x2="-242.95" y2="175.72" gradientTransform="matrix(3, 0, 0, -53, 755, 9394)" xlink:href="#linear-gradient"/><linearGradient id="linear-gradient-6" x1="-336.41" y1="129.34" x2="-335.58" y2="128.52" gradientTransform="matrix(35, 0, 0, -4, 11816, 577.5)" xlink:href="#linear-gradient"/><linearGradient id="linear-gradient-7" x1="-340.19" y1="177.53" x2="-339.36" y2="176.72" gradientTransform="matrix(63.04, 0, 0, -71.8, 21476.26, 12768.41)" xlink:href="#linear-gradient"/><linearGradient id="linear-gradient-8" x1="-336.41" y1="129.88" x2="-335.58" y2="129.07" gradientTransform="matrix(35, 0, 0, -4, 11816, 591.5)" xlink:href="#linear-gradient"/><linearGradient id="linear-gradient-9" x1="-335.51" y1="172.28" x2="-334.68" y2="171.46" gradientTransform="matrix(31.52, 0, 0, -25.86, 10617.75, 4481.63)" xlink:href="#linear-gradient"/><linearGradient id="linear-gradient-10" x1="-328.97" y1="161.18" x2="-328.14" y2="160.36" gradientTransform="matrix(18.65, 0, 0, -10.78, 6181.88, 1780.25)" xlink:href="#linear-gradient"/><linearGradient id="linear-gradient-11" x1="-312.72" y1="161.1" x2="-311.89" y2="160.28" gradientTransform="matrix(9.25, 0, 0, -10.84, 2943.53, 1776.74)" xlink:href="#linear-gradient"/><linearGradient id="linear-gradient-12" x1="-340.19" y1="160.11" x2="-339.36" y2="159.29" gradientTransform="matrix(63.04, 0, 0, -10.51, 21476.26, 1691.01)" xlink:href="#linear-gradient"/></defs><g id="Registration"><path id="Path_1-2" data-name="Path 1-2" class="cls-1" d="M67,94.31l2-3h-26l2,3Z" transform="translate(-10.12 -8.61)"/><path id="Path_2-2" data-name="Path 2-2" class="cls-2" d="M98.78,91.36H72.18a1.46,1.46,0,0,1-.25.81c-3.13,4.69-3.15,5.1-4.18,5.1-25.49,0-24.26.28-24.86-.67-3.14-4.7-3.21-4.65-3.21-5.24H13.07a3,3,0,0,0-3,3h0v3a5.91,5.91,0,0,0,5.91,5.9H95.82a5.91,5.91,0,0,0,5.91-5.9v-3A3,3,0,0,0,98.78,91.36Z" transform="translate(-10.12 -8.61)"/><path id="Rectangle_1-2" data-name="Rectangle 1-2" class="cls-3" d="M86.91,36.45h0a1.69,1.69,0,0,1,1.69,1.69V79.49a1.69,1.69,0,0,1-1.69,1.69h0a1.69,1.69,0,0,1-1.69-1.69V38.14A1.69,1.69,0,0,1,86.91,36.45Z" transform="translate(-10.12 -8.61)"/><path id="Path_3-2" data-name="Path 3-2" class="cls-4" d="M95.82,33.73a4.43,4.43,0,0,0-4.43-4.43H85.48v4.43h4.44a1.47,1.47,0,0,1,1.47,1.47V82.49A1.48,1.48,0,0,1,89.91,84h-68a1.47,1.47,0,0,1-1.47-1.48V35.2a1.47,1.47,0,0,1,1.47-1.47h4.44V29.3H20.46A4.43,4.43,0,0,0,16,33.73V88.4H95.82Z" transform="translate(-10.12 -8.61)"/><path id="Rectangle_2-2" data-name="Rectangle 2-2" class="cls-5" d="M24.89,36.45h0a1.26,1.26,0,0,1,1.26,1.27V79.91a1.26,1.26,0,0,1-1.26,1.27h0a1.27,1.27,0,0,1-1.27-1.27V37.72A1.27,1.27,0,0,1,24.89,36.45Z" transform="translate(-10.12 -8.61)"/><path id="Rectangle_3-2" data-name="Rectangle 3-2" class="cls-6" d="M43,60.08H69.19a1.69,1.69,0,0,1,1.69,1.69h0a1.69,1.69,0,0,1-1.69,1.68H43a1.69,1.69,0,0,1-1.69-1.68h0A1.69,1.69,0,0,1,43,60.08Z" transform="translate(-10.12 -8.61)"/><path id="Path_4-2" data-name="Path 4-2" class="cls-7" d="M82.53,20.43H29.34V81H82.53Zm-26.6,1.48c18.67,0,22.57,27,4.44,31.88a16.34,16.34,0,0,1-7.39.36,16.61,16.61,0,0,1-7.66-3.64,16.25,16.25,0,0,1,10.61-28.6ZM73.67,76.58a1.48,1.48,0,0,1-1.48,1.48H39.68a1.48,1.48,0,0,1-1.48-1.48v-5.9a1.48,1.48,0,0,1,1.48-1.48H72.19a1.48,1.48,0,0,1,1.48,1.48Zm0-11.82a1.48,1.48,0,0,1-1.48,1.48H39.68a1.48,1.48,0,0,1-1.48-1.48V58.85a1.47,1.47,0,0,1,1.48-1.47H72.19a1.48,1.48,0,0,1,1.48,1.47Z" transform="translate(-10.12 -8.61)"/><path id="Rectangle_4-2" data-name="Rectangle 4-2" class="cls-8" d="M43,71.89H69.19a1.69,1.69,0,0,1,1.69,1.69h0a1.69,1.69,0,0,1-1.69,1.69H43a1.69,1.69,0,0,1-1.69-1.69h0A1.69,1.69,0,0,1,43,71.89Z" transform="translate(-10.12 -8.61)"/><path id="Path_5-2" data-name="Path 5-2" class="cls-9" d="M51.23,40.45a7.54,7.54,0,0,1-2.15-6.33,6.86,6.86,0,0,1,13.71,0c0,2.18,0,4.27-2.16,6.33a10.7,10.7,0,0,1,5.51,6.22,13.3,13.3,0,1,0-20.42,0,10.77,10.77,0,0,1,5.51-6.22Z" transform="translate(-10.12 -8.61)"/><path id="Path_6-2" data-name="Path 6-2" class="cls-10" d="M48.54,47.67c-.57,1.67-.41,1.08-.41,1.23a13.37,13.37,0,0,0,15.69,0c0-.15.15.4-.41-1.21a7.85,7.85,0,0,0-14.87,0Z" transform="translate(-10.12 -8.61)"/><path id="Path_7-2" data-name="Path 7-2" class="cls-11" d="M59.83,35.47V34.13a3.9,3.9,0,1,0-7.8,0v1.34a3.9,3.9,0,1,0,7.8,0Z" transform="translate(-10.12 -8.61)"/><path id="Path_8-2" data-name="Path 8-2" class="cls-12" d="M82.53,8.61H29.34v8.86H82.53Zm-47.29,5.9A1.48,1.48,0,1,1,36.72,13h0A1.47,1.47,0,0,1,35.24,14.51Zm5.91,0A1.48,1.48,0,1,1,42.63,13h0a1.47,1.47,0,0,1-1.47,1.47Zm5.91,0A1.48,1.48,0,1,1,48.53,13h0a1.46,1.46,0,0,1-1.46,1.47Z" transform="translate(-10.12 -8.61)"/></g></svg>