<svg id="Icon" xmlns="http://www.w3.org/2000/svg" viewBox="0 0 77.94 96.49" width='200'><defs><style>.cls-1{fill:#0cc;}.cls-2{fill:#0a0114;}.cls-3{fill:#fff;}</style></defs><path id="doorframe" class="cls-1" d="M149.71,77.16H102.39s-.25,75-.51,79.26a.18.18,0,0,0,.18.19h47.65" transform="translate(-88.14 -67.9)"/><polygon id="insidedoor" class="cls-2" points="16.46 11.76 58.8 11.76 58.52 86.21 16.46 86.21 16.46 11.76"/><polygon id="leftdoor" class="cls-1" points="0 10.78 32.9 0 32.9 96.49 0 87.65 0 10.78"/><ellipse id="doorhandle" class="cls-2" cx="26.39" cy="48.61" rx="2.2" ry="3.13"/><g id="message"><g id="Messages"><path class="cls-3" d="M148.73,87.26c-9.59,0-17.36,6.44-17.36,14.38a13.25,13.25,0,0,0,5.14,10.21l-1.09,7.37L142,114.9a20.46,20.46,0,0,0,6.72,1.12c9.58,0,17.35-6.44,17.35-14.38S158.31,87.26,148.73,87.26Z" transform="translate(-88.14 -67.9)"/></g></g></svg>