<svg id="CONNECTR" xmlns="http://www.w3.org/2000/svg" viewBox="0 0 543.34 83.61">
  <path fill="white" id="TR" d="M566.84,98.83l.73-.13a22.76,22.76,0,0,0,11.89-5.88,18.91,18.91,0,0,0,6-14.53V77a19.44,19.44,0,0,0-6-14.53,19.7,19.7,0,0,0-14.53-6h-76v4.62h22.85v74.23h4.62V61.05h28.31v74.23h4.62V98.83h12.22l21.07,36.45H588Zm-17.5-4.56V61.05h15.59A15.79,15.79,0,0,1,580.84,77v1.32a15.64,15.64,0,0,1-4.62,11.29,15.44,15.44,0,0,1-11.29,4.69Z" transform="translate(-44.63 -54.08)"/>
  <path fill="white" id="E" d="M401.05,61.06V91.63h32.17v4.56H401.05v34.47h36.06v4.62H396.43V56.43h40.68v4.63Z" transform="translate(-44.63 -54.08)"/>
  <path fill="white" id="C" d="M449.86,65.28a19.85,19.85,0,0,0-5.94,14.26v32.63a20.06,20.06,0,0,0,20.14,20.14h1.71A19.59,19.59,0,0,0,480,126.43a18.48,18.48,0,0,0,4.52-7.1,25.69,25.69,0,0,0,1.36-8.48h4.55a30,30,0,0,1-1.71,10.23,23.41,23.41,0,0,1-5.55,8.59,23.78,23.78,0,0,1-17.44,7.26h-1.71a24.68,24.68,0,0,1-24.7-24.76V79.54a24,24,0,0,1,7.27-17.49,23.48,23.48,0,0,1,17.43-7.2h1.71a24,24,0,0,1,17.5,7.26,22.63,22.63,0,0,1,5.55,8.62,30.54,30.54,0,0,1,1.65,10.14h-4.55a25.82,25.82,0,0,0-1.36-8.46A18.43,18.43,0,0,0,480,65.28a18.93,18.93,0,0,0-14.27-5.87h-1.71a19.54,19.54,0,0,0-14.2,5.87" transform="translate(-44.63 -54.08)"/>
  <path fill="white" id="NN" d="M390.87,56.43v78.85h-4.36l-42.1-69.36v69.36h-4.36l-42.13-69.4v69.4h-4.63V56.43h4l42.46,69.93V56.43h4l42.45,69.93V56.43Z" transform="translate(-44.63 -54.08)"/>
  <path fill="white" id="O" d="M280.87,62.05a23.49,23.49,0,0,0-17.44-7.2h-1.71a23.51,23.51,0,0,0-17.44,7.2A24,24,0,0,0,237,79.54v32.63a24.68,24.68,0,0,0,24.7,24.76h1.71a24.68,24.68,0,0,0,24.7-24.76V79.54a24,24,0,0,0-7.26-17.49m2.71,50.12a20.08,20.08,0,0,1-20.15,20.14h-1.71a20.08,20.08,0,0,1-20.15-20.14V79.54a19.84,19.84,0,0,1,6-14.26,19.54,19.54,0,0,1,14.2-5.87h1.71a19.52,19.52,0,0,1,14.2,5.87,19.84,19.84,0,0,1,5.95,14.26Z" transform="translate(-44.63 -54.08)"/>
  <path fill="white" id="C-2" data-name="C" d="M190.76,65.28a19.86,19.86,0,0,0-5.95,14.26v32.63A20.08,20.08,0,0,0,205,132.31h1.71a19.6,19.6,0,0,0,14.27-5.88,18.59,18.59,0,0,0,4.52-7.1,26,26,0,0,0,1.35-8.48h4.56a29.77,29.77,0,0,1-1.72,10.23,23.26,23.26,0,0,1-5.54,8.59,23.81,23.81,0,0,1-17.44,7.26H205a24.67,24.67,0,0,1-24.7-24.76V79.54a24,24,0,0,1,7.26-17.49A23.51,23.51,0,0,1,205,54.85h1.71a24,24,0,0,1,17.5,7.26,22.75,22.75,0,0,1,5.55,8.62,30.54,30.54,0,0,1,1.65,10.14h-4.56a26.09,26.09,0,0,0-1.35-8.46,18.55,18.55,0,0,0-4.52-7.13,19,19,0,0,0-14.27-5.87H205a19.52,19.52,0,0,0-14.2,5.87" transform="translate(-44.63 -54.08)"/>
  <path fill="white" id="C-3" data-name="C" d="M86.06,127A13.69,13.69,0,0,0,90,119.62h5a20,20,0,0,1-5.66,10.67,24.18,24.18,0,0,1-17.75,7.4H69.79a25.16,25.16,0,0,1-25.16-25.22V79.24A24.44,24.44,0,0,1,52,61.42a24,24,0,0,1,17.76-7.34h1.75a24.41,24.41,0,0,1,17.82,7.41A19.71,19.71,0,0,1,95,72.19H90c-.93-4-2.23-5.8-3.93-7.49a19.29,19.29,0,0,0-14.52-6H69.79a19.9,19.9,0,0,0-14.46,6,20.23,20.23,0,0,0-6.06,14.53v33.23A20.45,20.45,0,0,0,69.79,133h1.75a20,20,0,0,0,14.52-6" transform="translate(-44.63 -54.08)"/>
  <path fill="white" id="center-circles" d="M131.4,95.89A21,21,0,0,0,99.89,77.7a21,21,0,1,0,0,36.37A21,21,0,0,0,131.4,95.89m-42,16.42a16.43,16.43,0,1,1,6.43-31.54,21,21,0,0,0,0,30.24,16.41,16.41,0,0,1-6.43,1.3m10.5-3.8a16.41,16.41,0,0,1,0-25.24,16.41,16.41,0,0,1,0,25.24m10.5-12.62A20.91,20.91,0,0,0,104,80.77,16.42,16.42,0,1,1,104,111a20.92,20.92,0,0,0,6.43-15.12" transform="translate(-44.63 -54.08)"/>
  <path  fill="white" id="C-4" data-name="C" d="M129.36,54.08a25.15,25.15,0,0,1,25.15,25.23v33.23a24.42,24.42,0,0,1-7.4,17.82,24,24,0,0,1-17.75,7.33h-1.75a24.46,24.46,0,0,1-17.83-7.4,19.71,19.71,0,0,1-5.64-10.7l5,0a13.73,13.73,0,0,0,3.9,7.43,19.3,19.3,0,0,0,14.53,6h1.75a19.93,19.93,0,0,0,14.46-6,20.24,20.24,0,0,0,6.05-14.52V79.31a20.45,20.45,0,0,0-20.51-20.52h-1.75a20,20,0,0,0-14.53,6,13.76,13.76,0,0,0-3.9,7.41l-5,0a20.09,20.09,0,0,1,5.65-10.67,24.22,24.22,0,0,1,17.76-7.4h1.75" transform="translate(-44.63 -54.08)"/>
</svg>
