<svg xmlns="http://www.w3.org/2000/svg" viewBox="0 0 641.06 964.56"><defs><style>.cls-1{isolation:isolate;}.cls-16,.cls-2{fill:#4a3c53;}.cls-3{fill:#db7461;}.cls-4{fill:#bd5a4a;}.cls-5,.cls-6{fill:#5b7ccd;}.cls-10,.cls-13,.cls-16,.cls-22,.cls-6{opacity:0.5;}.cls-10,.cls-16,.cls-6{mix-blend-mode:multiply;}.cls-7{fill:#1a2867;}.cls-8{fill:#b397e2;}.cls-10,.cls-9{fill:#7c59cd;}.cls-11{fill:#bdc3f7;}.cls-12,.cls-13{fill:#a398f8;}.cls-14{fill:#8e9fef;}.cls-15{fill:#062290;}.cls-17{fill:#06122a;}.cls-18{fill:#aa4f46;}.cls-19{fill:#4c1212;}.cls-20{fill:#dbc3f5;}.cls-21{fill:#962a41;}.cls-22{fill:none;stroke:#5b7ccd;stroke-miterlimit:10;}</style></defs><g class="cls-1"><g id="character"><polygon class="cls-2" points="640.09 689.34 607.34 710.21 595.85 679.59 640.09 689.34"/><polygon class="cls-2" points="31.9 701.85 0 714.16 25.98 744.69 31.9 701.85"/><path class="cls-3" d="M860.71,803.59s4.25,34.94,8.2,44.36,7,38.28,7,48.61-2.43,29.47-10.33,41.62-19.14,33.11-24,34.63-32.51,8.2-40.1,4.56-27-33.12-29.77-44.66S753.16,820,757.42,812.41Z" transform="translate(-240.66 -125.29)"/><path class="cls-4" d="M860.71,803.59s4.25,34.94,8.2,44.36,7,38.28,7,48.61-2.43,29.47-10.33,41.62-19.14,33.11-24,34.63-32.51,8.2-40.1,4.56-27-33.12-29.77-44.66S753.16,820,757.42,812.41Z" transform="translate(-240.66 -125.29)"/><path class="cls-4" d="M261.16,817.57s3.19,39.19,2.28,44.2-2.11,31.45-1.05,45.12,4.24,41.46,7.89,46.48,45.11,18.68,69.72-4.1,20.05-55.6,24.15-77.47S373,793.42,373,793.42Z" transform="translate(-240.66 -125.29)"/><path class="cls-5" d="M730,835.49s136.65-17.44,151.69-20.86c0,0-75.87-226.94-83.39-250.86-6.08-19.33-9-27.18-17.78-37.75-6.07-7.29-19.13-14.63-32.81-19.31s-40.62-16.77-50-14.64-6.68,77.59,5.83,161.24C717.65,747.65,730,835.49,730,835.49Z" transform="translate(-240.66 -125.29)"/><path class="cls-6" d="M738.28,835.49s128.05-16.33,143.09-19.74c0,0-75.88-226.94-83.4-250.86-6.07-19.34-9-27.19-17.77-37.75-4.69-5.64,34.88,117.78,50.13,187.73,4.48,20.55-5,58.19-5,58.19s11.85,3.56,17.77,3.71c-6.83,16.41-107.47,41.48-107.47,41.48Z" transform="translate(-240.66 -125.29)"/><path class="cls-5" d="M411.11,603.85s2.71-98.58-18.55-98.58-61.22,22.48-70.79,28-17.77,16.4-22.33,37.36S287.14,623,287.14,623L240.66,839.44s39.64-5,49.21-6.83S393.32,814.38,397.42,813C397.42,813,420.25,676.3,411.11,603.85Z" transform="translate(-240.66 -125.29)"/><path class="cls-6" d="M302.41,774.92l-16.64-20.79s18.23-166.69,36-220.91c-9.57,5.46-17.77,16.4-22.33,37.36S287.14,623,287.14,623L240.66,839.44s39.64-5,49.21-6.83S393.32,814.38,397.42,813Z" transform="translate(-240.66 -125.29)"/><path class="cls-5" d="M463,479.46s-80.35,23.46-91.75,30.75-1.21,169.74.61,211.66,2.28,368,2.28,368h364.1S731,888.66,731.9,809.37s-2.28-123.5-2.28-123.5,1.37-176-3.49-183S665.51,484,665.51,484Z" transform="translate(-240.66 -125.29)"/><path class="cls-7" d="M486.27,579.23l7.44,150.36a10.59,10.59,0,0,0,10.59,10h85.28a10.58,10.58,0,0,0,10.6-10.56V578.71a10.58,10.58,0,0,0-10.6-10.56H496.85A10.57,10.57,0,0,0,486.27,579.23Z" transform="translate(-240.66 -125.29)"/><path class="cls-8" d="M486.27,582.41l7.44,148.51a10.53,10.53,0,0,0,10.59,9.91h85.28a10.51,10.51,0,0,0,10.6-10.43V581.89a10.51,10.51,0,0,0-10.6-10.43H496.85A10.5,10.5,0,0,0,486.27,582.41Z" transform="translate(-240.66 -125.29)"/><path class="cls-9" d="M486.27,583.88,493.71,731a10.49,10.49,0,0,0,10.59,9.82h85.28a10.46,10.46,0,0,0,10.6-10.33V583.37A10.47,10.47,0,0,0,589.58,573H496.85A10.44,10.44,0,0,0,486.27,583.88Z" transform="translate(-240.66 -125.29)"/><path class="cls-10" d="M486.27,583.88,493.71,731a10.49,10.49,0,0,0,10.59,9.82h85.28a10.46,10.46,0,0,0,10.6-10.33s-.69-51.82-60.26-51.36S496.85,573,496.85,573A10.44,10.44,0,0,0,486.27,583.88Z" transform="translate(-240.66 -125.29)"/><path class="cls-7" d="M506.09,618.58h0a8.92,8.92,0,0,1-8.77-8.46l-.89-18.39a7.94,7.94,0,0,1,7.95-8.46h0a8.93,8.93,0,0,1,8.77,8.46l.89,18.39A8,8,0,0,1,506.09,618.58Z" transform="translate(-240.66 -125.29)"/><ellipse class="cls-11" cx="504.8" cy="594.13" rx="5.39" ry="5.26" transform="translate(-485.86 681.71) rotate(-65.49)"/><ellipse class="cls-12" cx="504.8" cy="594.13" rx="4.68" ry="4.57" transform="translate(-485.86 681.71) rotate(-65.49)"/><ellipse class="cls-7" cx="504.8" cy="594.13" rx="3.68" ry="3.59" transform="translate(-485.86 681.71) rotate(-65.49)"/><ellipse class="cls-12" cx="505.95" cy="608.21" rx="5.18" ry="5.06" transform="translate(-497.99 691) rotate(-65.49)"/><ellipse class="cls-11" cx="505.95" cy="608.21" rx="4.61" ry="4.5" transform="translate(-497.99 691) rotate(-65.49)"/><ellipse class="cls-7" cx="505.95" cy="608.21" rx="3.63" ry="3.54" transform="translate(-497.99 691) rotate(-65.49)"/><path class="cls-13" d="M506,604.88a3.22,3.22,0,0,1,3.2,3.32c-4.48-3.91-6.56,1.83-6.53,0A3.38,3.38,0,0,1,506,604.88Z" transform="translate(-240.66 -125.29)"/><path class="cls-13" d="M507.83,595.67a3.27,3.27,0,0,1-4.38,1.51c5.49-2.43,1.38-6.74,3-5.94A3.3,3.3,0,0,1,507.83,595.67Z" transform="translate(-240.66 -125.29)"/><path class="cls-6" d="M638.8,1017.44c-8.83,10.94-167.41,47.12-191.17,42.33S391,697.27,383.29,712.08s-9.11,377.77-9.11,377.77h364.1S731,888.66,731.9,809.37s-2.28-123.5-2.28-123.5-21.52,164-31.44,202-126.07,137.05-126.07,137.05S591.48,1022.18,638.8,1017.44Z" transform="translate(-240.66 -125.29)"/><path class="cls-3" d="M520.15,461.47l-58,20.79s.42,71.92,99.76,71.92c0,0,79.3.45,99.35-70.18l-62.43-22.53Z" transform="translate(-240.66 -125.29)"/><polygon class="cls-4" points="376.86 342.76 375.89 354.61 414.12 356.47 376.86 342.76"/><polygon class="cls-4" points="234.66 364.45 233.7 352.6 261.68 342.37 234.66 364.45"/><path class="cls-12" d="M566.92,540h.19c3-.22,62.41,0,86.38-60.54l19.8,5.14a2.07,2.07,0,0,1,1.23,2.61c-4.06,11.91-36.49,74.71-107.81,74.71S462.58,511.47,455.44,481.5a111.12,111.12,0,0,1,23.32-6.22S483.74,541.84,566.92,540Z" transform="translate(-240.66 -125.29)"/><path class="cls-3" d="M738.28,736.42c2.57,13.58,3.64,18.68,6.07,33.45,3.61,21.9,6.63,53.93,7.9,61.37,2.13,12.46,17,102.08,20.66,110.89s24,31.9,28.56,35.24,35.24-1.52,41.62-5.47,23.39-44.36,22.78-64.71-6.38-43.44-9.72-52.56-41.31-70.17-45.87-81.72-16.69-49.11-22.17-51.59S735.71,722.83,738.28,736.42Z" transform="translate(-240.66 -125.29)"/><path class="cls-4" d="M747.39,786.81v8.43s30.46-15.56,40.16-16,18.79,7.58,25.8,0c-2.19-6.14-10.94-14.79-10.94-14.79L762.82,777Z" transform="translate(-240.66 -125.29)"/><path class="cls-4" d="M802.08,948.35c-30-25.29-51.1-124.55-49.83-117.11,2.13,12.46,17,102.08,20.66,110.89s24,31.9,28.56,35.24,35.24-1.52,41.62-5.47S832.09,973.65,802.08,948.35Z" transform="translate(-240.66 -125.29)"/><path class="cls-3" d="M744.93,754.13c-6.49-10.32-15.62-26.11-13.06-35.85s8.84-25.87,18.26-38.63,22.48-30.08,31.9-38.89,3.76-3,9.23-14,18.82-29.64,28.84-34.5,14.59-3.34,15.8,0,4,7.6,0,11.24-11.23,23.87-14.27,28.73S844.11,671,841,678.13s-53.22,57.11-54.41,58.93S751.42,764.46,744.93,754.13Z" transform="translate(-240.66 -125.29)"/><path class="cls-4" d="M752.2,688.68C753.58,683,776,652.17,782,640.76a118.05,118.05,0,0,1,8.2-14c6.59-10.3,19.85-29.6,29.87-34.46s14.59-3.34,15.8,0,4,7.6,0,11.24-11.23,23.87-14.27,28.73S844.11,671,841,678.13C838.81,683,750.81,694.37,752.2,688.68Z" transform="translate(-240.66 -125.29)"/><path class="cls-3" d="M779.63,750s11.49-19.57,23.65-28.68,41.33-34.38,46.19-40.16,2.12-8.62,2.73-12.21,6.38-31.84,7.9-34.87,1.22-5.47,1.22-8.81S841,595.19,840.05,592.76s-7.37-10.73-8.59-11-8.81-3.65-11.54-2.74-5.47,9.12-5.17,12.15,15.62,32,19.27,35c0,0-9.46,27.34-10.07,31.59S766.26,718.1,779.63,750Z" transform="translate(-240.66 -125.29)"/><path class="cls-3" d="M816.3,682.08c-.66-.73-11.19-48.61-12.4-52.26S783.31,602,779.63,597.23s-5.5-9.64-3.68-15.71,5.47-8.51,9.11-7,14.37,16.17,19.14,20.05,14.06,13.7,16.28,19.45c3.77,9.72,11.67,38.27,13.19,46.17S835.07,703,816.3,682.08Z" transform="translate(-240.66 -125.29)"/><path class="cls-3" d="M793.87,691s-8.92-37.52-9.5-40.53S767.14,626.78,764.1,621s-5.77-10-1.52-14.58,11.29-3.65,15.37,0,22.64,25.66,23.93,28.45c2.69,5.8,11,29.7,12.72,36.78S800.37,696.47,793.87,691Z" transform="translate(-240.66 -125.29)"/><path class="cls-3" d="M748.85,725.34s1.28-13.87,19.92-25.85c0,0-12.7-35-14.83-39.93s-17.56-18.09-18.17-21.44,1.52-8.13,3.35-9.09,6.7-3.09,9.14-2.17,19.75,16.22,25.48,19.21,21.34,41.73,23.77,46.6-24.69,38-37.78,45.17S748.85,725.34,748.85,725.34Z" transform="translate(-240.66 -125.29)"/><path class="cls-9" d="M814,757.87c2.22,7.46-2.51,19.37-2.51,19.37s-2.73,1.07-5.19,1.89-8.89-3.52-12.86-15.68c-3.3-11.37-.49-17.09,2-18.28s4.49-2.31,5.65-2.12C806.18,743.89,811.71,750.15,814,757.87Z" transform="translate(-240.66 -125.29)"/><ellipse class="cls-14" cx="806.34" cy="760.15" rx="8.01" ry="17.92" transform="translate(-424 136.32) rotate(-16.57)"/><ellipse class="cls-15" cx="807.3" cy="760.12" rx="6.05" ry="13.54" transform="translate(-423.95 136.59) rotate(-16.57)"/><path class="cls-15" d="M794.19,759.65l3,9.48a1.49,1.49,0,0,1-1,1.9c-3.89,1.08-14.69,4.18-24.08,7.65-9.13,3.38-20.16,9.72-24.56,12.34a1.49,1.49,0,0,1-2.25-1.09l-1.36-10.26a1.5,1.5,0,0,1,.52-1.35c3.23-2.7,19-14.77,48.07-19.7A1.51,1.51,0,0,1,794.19,759.65Z" transform="translate(-240.66 -125.29)"/><path class="cls-6" d="M794.19,759.65l3,9.48a1.49,1.49,0,0,1-1,1.9c-3.89,1.08-14.69,4.18-24.08,7.65-9.13,3.38-20.16,9.72-24.56,12.34a1.49,1.49,0,0,1-2.25-1.09l-1.36-10.26a1.5,1.5,0,0,1,.52-1.35c3.23-2.7,1.44,8.38,14.51,2.49S794,758.94,794.19,759.65Z" transform="translate(-240.66 -125.29)"/><path class="cls-3" d="M655.92,308.1s8.66-16,15.5-15.49,13.67,11.39,16.4,18.68-8.2,36.07-13.67,42.87-14.82,24.18-27.46,18.68S655.92,308.1,655.92,308.1Z" transform="translate(-240.66 -125.29)"/><path class="cls-4" d="M667.19,332.61S665,309.06,669,309.33s8,6.7,9.66,11-4.83,21.23-8,25.24-8.72,14.23-16.16,11S667.19,332.61,667.19,332.61Z" transform="translate(-240.66 -125.29)"/><path class="cls-3" d="M500.86,422v70.63s13.67,36.91,56.51,38.28,61.52-48.31,61.52-48.31V397.87S503.14,394.68,500.86,422Z" transform="translate(-240.66 -125.29)"/><path class="cls-4" d="M500.86,422v28.7s20.81,24.19,26.28,28.73,53.47,5.76,61.37,3.63,30.38-45.57,30.38-45.57V397.87S503.14,394.68,500.86,422Z" transform="translate(-240.66 -125.29)"/><path class="cls-3" d="M443.44,308.1s-8.66-16-15.49-15.49S414.28,304,411.54,311.29s8.21,36.07,13.68,42.87,14.82,24.18,27.46,18.68S443.44,308.1,443.44,308.1Z" transform="translate(-240.66 -125.29)"/><path class="cls-4" d="M433.62,334.94s.51-24.32-3.25-24.05-7.52,6.74-9,11.06,4.51,21.34,7.52,25.37,8.15,14.3,15.1,11.05S433.62,334.94,433.62,334.94Z" transform="translate(-240.66 -125.29)"/><path class="cls-3" d="M484.91,197.82s-52,57-51.49,71.09,4.1,52.86,11.39,82.94S460.76,404,461.22,406.3s67.45,49.9,78.38,53.55,35.54,0,35.54,0,66.08-46.26,71.09-53.55,12.76-49,16.4-83.62,13.22-133.52-46-154.48S484.91,197.82,484.91,197.82Z" transform="translate(-240.66 -125.29)"/><path class="cls-4" d="M484.91,197.82s-52,57-51.49,71.09,4.1,52.86,11.39,82.94S460.76,404,461.22,406.3s-13-69.35-8-86.45c2.15-7.3,30.68-47.44,59.43-62.48,10.79-5.65,39.49-18.53,39.49-18.53l4.1,10.32s44.12-3.94,62.66,1.52S660.67,314,660.67,314c3.64-34.64,15.18-124.87-44.06-145.83S484.91,197.82,484.91,197.82Z" transform="translate(-240.66 -125.29)"/><path class="cls-2" d="M678.35,198.51c-1.36-11.62-19.82-39-32.81-48.54s-57.41-26-75.87-24.6-79.29,5.47-88.18,9.57-39,36.22-39,36.22L448,152c-11.62,4.78-20.51,28-20.51,28l.69-21.87c-7.52,10.25-9.57,49.21-9.57,49.21-6.84,6.84-5.47,25.29,0,52.64a141.81,141.81,0,0,0,7.27,23.75,14.72,14.72,0,0,0,0,2.58C427,301.07,443,343.05,443,343.05l1.92-33.4c3.53-15.44,8.1-49.4,8.1-49.4s5.93,15.95,14.81,8,47.85-53.88,47.85-53.88l-15,30s31.45-4.1,39-10.93,34.86-37.6,34.86-37.6c-13,27.34-4.79,43.75-4.79,43.75,21.73-2.35,58.55-41.34,68.5-52.29l14.67,54.39L659,328.81s4.21-13.9,8.81-22.77c3.53-6.81,7.56-8.1,8.45-13.44C678.3,280.29,679.72,210.13,678.35,198.51Z" transform="translate(-240.66 -125.29)"/><path class="cls-16" d="M678.35,198.51c-1.36-11.62-19.82-39-32.81-48.54s-57.41-26-75.87-24.6-79.29,5.47-88.18,9.57-39,36.22-39,36.22L448,152c-11.62,4.78-20.51,28-20.51,28l.69-21.87c-7.52,10.25-9.57,49.21-9.57,49.21-6.84,6.84-5.47,25.29,0,52.64a141.81,141.81,0,0,0,7.27,23.75,14.72,14.72,0,0,0,0,2.58C427,301.07,443,343.05,443,343.05s-11.85-62.33-13.67-75.4,0-44.31,0-44.31l4,10.83s6.88-45.16,22.08-56.7S535,144.05,535,144.05s61.67,7.19,69.41,11.24,4.71-9,4.71-9,43.93,35.54,48,38.73,18.2,112.88,19.09,107.54C678.3,280.29,679.72,210.13,678.35,198.51Z" transform="translate(-240.66 -125.29)"/><ellipse class="cls-17" cx="359.82" cy="188.74" rx="8.68" ry="11.09"/><ellipse class="cls-17" cx="268.89" cy="191.85" rx="8.68" ry="11.09"/><path class="cls-18" d="M584.56,325.11s9.41,9.12,11.85,9.88c0,0-8.21,1.06-12.76-9.88" transform="translate(-240.66 -125.29)"/><path class="cls-18" d="M601.87,297.62s9.88,5,12,8.42C613.87,306,611.9,297.32,601.87,297.62Z" transform="translate(-240.66 -125.29)"/><path class="cls-2" d="M581,273.77c-1.61-.3-.7-1.86-.7-1.86s15.4-6.47,28.86-3.45c12.27,2.75,18.92,13.13,19.52,14.81s-.53,4.17-.53,4.17S617.82,273.09,606,271.8A69.84,69.84,0,0,0,581,273.77Z" transform="translate(-240.66 -125.29)"/><path class="cls-2" d="M522.13,275.59l.76,1.91S508,275,495.94,280.34c-7.51,3.34-19.84,15.46-20.75,16.52s-.76-4.26-.76-4.26,12.52-13.12,19-16.09C503,272.1,514.86,273,522.13,275.59Z" transform="translate(-240.66 -125.29)"/><path class="cls-18" d="M510.09,299.78s-1.25-2.39-7.52,0-5.24,7.75-5.24,7.75A19.64,19.64,0,0,1,510.09,299.78Z" transform="translate(-240.66 -125.29)"/><path class="cls-18" d="M522.89,327.47s-5.28,6.09-9,7.55-11.62,2.7-11.62,2.7a26.89,26.89,0,0,0,12,0C520.91,336.24,523.84,329.63,522.89,327.47Z" transform="translate(-240.66 -125.29)"/><path class="cls-18" d="M546,339.09s-5,8.2-4.65,9.23,15,6.95,15,6.95l14.39-7.18L565.17,338l1.31,8.29L556,351.62l-11.22-5.3Z" transform="translate(-240.66 -125.29)"/><path class="cls-19" d="M515.44,382.84s34.91-11.17,76.36-1.83c0,0,.2,21.42-9.14,28.26S560.05,422,556,422s-28.91-8.44-34.6-17.32S515.44,382.84,515.44,382.84Z" transform="translate(-240.66 -125.29)"/><path class="cls-20" d="M523.19,380.82c13.94-3.07,38.28-5.62,62.24-1.14,1.69.45,0,7.52-2.45,9.17s-18.11,2.81-28.4,3-23.31-1.31-25.26-1.88S521,381.2,523.19,380.82Z" transform="translate(-240.66 -125.29)"/><path class="cls-21" d="M582.66,409.27C573.32,416.1,560.05,422,556,422c-3,0-17.54-4.67-27.13-10.71C525.54,409.23,565.11,392.86,582.66,409.27Z" transform="translate(-240.66 -125.29)"/><path class="cls-3" d="M423.39,757.87S407,771.09,401.06,776.1s-39.64,21.87-57,32.36-56.51,58.32-63.34,87-16,53.52-7.1,60.25,30.8,20,38.54,21.78,63.8-46.94,86.13-69.27,58.78-68.81,68.81-101.62S462.58,743.29,423.39,757.87Z" transform="translate(-240.66 -125.29)"/><path class="cls-4" d="M323.59,952.91c-6.19.75-32.81-17.32-37.82-23.24s-5-34.18-5-34.18c-6.84,28.71-16,53.52-7.1,60.25s30.8,20,38.54,21.78,63.8-46.94,86.13-69.27S338.63,951.09,323.59,952.91Z" transform="translate(-240.66 -125.29)"/><path class="cls-3" d="M413.27,771.39s19.69-39.95,20.14-52.71,2-25.21,7.18-27.34,29.74,5,48.88,27.5,30.83,43.13,19,58-37.21,38.89-53,42.53S398.84,797.82,413.27,771.39Z" transform="translate(-240.66 -125.29)"/><path class="cls-3" d="M457.39,703s-12.35,3-16,0-5.24-6.38-1.59-13,8.66-20.1,9.79-23.72,2.74-12.73,3.42-15.47,7-12.19,10.84-24.26,4.07-26,9.54-28.71a10.41,10.41,0,0,1,13.67,3.87c2.28,4.1,4.1,13.45.91,20.74s-7.46,28.05-7.46,28.05-.92,20.21-2.51,30.47S457.39,703,457.39,703Z" transform="translate(-240.66 -125.29)"/><path class="cls-4" d="M470.78,686.48s3.47-23.79,6-36S488,622.42,488,622.42l-7.46,28.05s-.87,23.52-1.37,29.63C478.61,686.63,469.11,700.82,470.78,686.48Z" transform="translate(-240.66 -125.29)"/><path class="cls-3" d="M448.46,709.34s13.44-20.5,15.72-22.33,29.85-19.36,35.54-22.33,12.31-8.2,17.55-10.48,28.17-3.27,30.68-3.73,12.91-2.42,17.09-2.19,5.54,11.85,4,13.9-5.24,3.82-11.17,4.07-26.43,6.48-28.25,6.1S506.1,691.57,501.77,695s-26.43,25.29-33.95,26.2S442.53,718.23,448.46,709.34Z" transform="translate(-240.66 -125.29)"/><path class="cls-4" d="M498.89,689.52s16.66-15.67,21.9-17.95,49.79-11.44,48.2-9.39-5.24,3.82-11.17,4.07-26.43,6.48-28.25,6.1S506.1,691.57,501.77,695s-15,12.8-15,12.8Z" transform="translate(-240.66 -125.29)"/><path class="cls-3" d="M466.23,707.79s32.12-15.54,34.63-16.22,38.28-3.65,44.43-4.1,47.17.13,46.48,6.56-4.1,14.86-12.53,15.08-27.11-.91-27.11-.91-24.38,7.55-33.5,13.12-43.86,25.84-55.77,19.92S466.23,707.79,466.23,707.79Z" transform="translate(-240.66 -125.29)"/><path class="cls-4" d="M515.44,711.47S542.86,700,549,699.5s38.66,9.39,30.23,9.61-27.11-.91-27.11-.91-40.67,16.73-49.79,22.3S515.44,711.47,515.44,711.47Z" transform="translate(-240.66 -125.29)"/><path class="cls-3" d="M493.11,790.23s15-14.13,18.23-19.14,7.52-22.79,7.52-22.79,24.15-8,29.39-8,19.83,9.11,23.7,9.57,8-.46,9.34-5.7.53-8.05-1.29-9.42-2.66-1.29-10.37-6.07-7.93-4.79-14.31-6.15-35.55-3.65-42.61-3.65-20.38,4.52-31.83,20.94S484.68,791.59,493.11,790.23Z" transform="translate(-240.66 -125.29)"/><path class="cls-6" d="M391.92,688.68s-10.48-30.15-12.3-45.64C379.62,643,375.75,665.51,391.92,688.68Z" transform="translate(-240.66 -125.29)"/><path class="cls-6" d="M385.57,707.75S371.9,698.53,368.71,694l-3.19-4.51s-4.74,8.27.45,11.85S378.28,708.2,385.57,707.75Z" transform="translate(-240.66 -125.29)"/><path class="cls-4" d="M569.63,512.94s-7,8.88-11,9.57S569.63,512.94,569.63,512.94Z" transform="translate(-240.66 -125.29)"/><path class="cls-4" d="M502,714.79c1.24-.56.09-4.12-4.27-3.15s-6.13,6.37-4.14,6.62S500.74,715.35,502,714.79Z" transform="translate(-240.66 -125.29)"/><path class="cls-4" d="M462.9,697.67c1.75-1.1-1.27-5.75-7.7-3.26s-9.65,5.26-6.47,5.09S461.16,698.77,462.9,697.67Z" transform="translate(-240.66 -125.29)"/><polyline class="cls-22" points="564.09 627.57 566.94 635.84 570.3 640.33"/><path class="cls-4" d="M795.69,699.83c.77-4.83-9.36-37.6-9.36-37.6S794.92,704.67,795.69,699.83Z" transform="translate(-240.66 -125.29)"/><path class="cls-4" d="M807.85,649.3l10.67,39.15S816.3,663.66,807.85,649.3Z" transform="translate(-240.66 -125.29)"/><path class="cls-4" d="M827.32,637.82,836.65,679S836.65,653.89,827.32,637.82Z" transform="translate(-240.66 -125.29)"/><path class="cls-4" d="M765.37,697.9c-7,.84-16.42,19-13.83,21.09C758.41,705.82,772.42,697.06,765.37,697.9Z" transform="translate(-240.66 -125.29)"/></g></g></svg>