<svg class="logo-spinner" xmlns="http://www.w3.org/2000/svg" width="804.7" height="804.6" viewBox="0 0 804.7 804.6">
  <defs>
    <style>
      .cls-1 {
        font-size: 148px;
        font-family: Arial-Black, Arial Black;
        font-weight: 800;
      }

      .cls-1, .cls-2 {
        fill: #fff;
        stroke: #fff;
        stroke-miterlimit: 10;
      }
    </style>
  </defs>
  <g id="logo-spinner-text">
    <text class="cls-1" transform="translate(402.38 123.68) rotate(9.26)">v</text>
    <text class="cls-1" transform="translate(480.34 137.4) rotate(21.55)">i</text>
    <text class="cls-1" transform="translate(517.22 147.59) rotate(34.52)">d</text>
    <text class="cls-1" transform="matrix(0.62, 0.78, -0.78, 0.62, 587.55, 193.23)">e</text>
    <text class="cls-1" transform="matrix(0.36, 0.93, -0.93, 0.36, 641.27, 257.47)">o</text>
    <text class="cls-1" transform="translate(671.07 338.98) rotate(81.97)"> </text>
    <text class="cls-1" transform="matrix(-0.08, 1, -1, -0.08, 680.38, 376.28)">c</text>
    <text class="cls-1" transform="translate(675.73 459.88) rotate(112.1)">a</text>
    <text class="cls-1" transform="translate(641.71 539.75) rotate(125.06)">l</text>
    <text class="cls-1" transform="translate(618.34 574.06) rotate(133.63)">l</text>
    <text class="cls-1" transform="matrix(-0.79, 0.61, -0.61, -0.79, 590.15, 604.48)"> </text>
    <text class="cls-1" transform="translate(561.68 630.81) rotate(154.41)">y</text>
    <text class="cls-1" transform="translate(496.35 665.36) rotate(170.6)">o</text>
    <text class="cls-1" transform="matrix(-0.99, -0.13, 0.13, -0.99, 413.99, 681.25)">u</text>
    <text class="cls-1" transform="matrix(-0.93, -0.38, 0.38, -0.93, 329.14, 669.33)">r</text>
    <text class="cls-1" transform="translate(276.81 648.11) rotate(-147.76)"> </text>
    <text class="cls-1" transform="matrix(-0.75, -0.66, 0.66, -0.75, 241.64, 627.13)">f</text>
    <text class="cls-1" transform="matrix(-0.58, -0.82, 0.82, -0.58, 205.67, 600.49)">a</text>
    <text class="cls-1" transform="translate(157.03 534.43) rotate(-108.98)">v</text>
    <text class="cls-1" transform="translate(130.52 466.57) rotate(-93.08)">o</text>
    <text class="cls-1" transform="matrix(0.19, -0.98, 0.98, 0.19, 126.32, 380.82)">r</text>
    <text class="cls-1" transform="translate(137.17 325.42) rotate(-68.71)">i</text>
    <text class="cls-1" transform="translate(150.37 287.39) rotate(-58.62)">t</text>
    <text class="cls-1" transform="translate(175.01 240.03) rotate(-44.32)">e</text>
    <text class="cls-1" transform="translate(234.23 180.09) rotate(-27.84)">s</text>
    <text class="cls-1" transform="translate(304.7 144) rotate(-15.55)">.</text>
  </g>
  <g id="Icon">
    <path id="C" class="cls-2" d="M568.32,690.78c3.74-3.83,6.64-8,8.72-17h11.23c-2.62,11.88-6.86,18.59-12.7,24.58q-16.61,17.05-39.86,17h-3.93q-23.26,0-40-17-16.45-17.05-16.47-41V580.77a57,57,0,0,1,16.62-41q16.59-17,39.86-16.9h3.93q23.25,0,40,17.06c5.95,6.08,10.18,12.83,12.69,24.65l-11.27,0c-2.1-9.09-5-13.35-8.82-17.23a42.75,42.75,0,0,0-32.61-13.8h-3.93a44.11,44.11,0,0,0-32.46,13.8q-13.29,13.62-13.6,33.45v76.55q.15,19.66,13.45,33.46a44.69,44.69,0,0,0,32.61,13.79h3.93a44.35,44.35,0,0,0,32.61-13.79" transform="translate(-194.68 -216.88)"/>
    <path id="OO" class="cls-2" d="M670.11,619.13c0-26.74-21.11-48.4-47.17-48.4a46.06,46.06,0,0,0-23.58,6.5,46,46,0,0,0-23.58-6.5c-26,0-47.16,21.66-47.16,48.4s21.12,48.38,47.16,48.38a45.88,45.88,0,0,0,23.58-6.5,46,46,0,0,0,23.58,6.5c26.06,0,47.17-21.67,47.17-48.38M575.78,657c-20.34,0-36.88-17-36.88-37.83s16.54-37.85,36.88-37.85a36.14,36.14,0,0,1,14.44,3,49.2,49.2,0,0,0,0,69.64,36,36,0,0,1-14.44,3m23.58-8.77a38.44,38.44,0,0,1,0-58.14,38.44,38.44,0,0,1,0,58.14m23.58-29.06a48.83,48.83,0,0,0-14.43-34.83,35.72,35.72,0,0,1,14.43-3c20.34,0,36.89,17,36.89,37.85S643.28,657,622.94,657a35.89,35.89,0,0,1-14.43-3,48.78,48.78,0,0,0,14.43-34.81" transform="translate(-194.68 -216.88)"/>
    <path id="C-2" data-name="C" class="cls-2" d="M665.52,522.82q23.25,0,40,17Q722,556.9,722,580.93v76.55a57.07,57.07,0,0,1-16.61,41q-16.62,17-39.87,16.89h-3.93q-23.25,0-40-17c-6-6.1-10.18-12.83-12.69-24.66l11.32.09c2.08,9.05,5,13.28,8.76,17.13a42.85,42.85,0,0,0,32.62,13.79h3.93A44.14,44.14,0,0,0,698,690.93q13.29-13.62,13.6-33.45V580.93q-.15-19.68-13.45-33.47a44.6,44.6,0,0,0-32.61-13.78h-3.93A44.3,44.3,0,0,0,629,547.46c-3.75,3.85-6.66,8-8.76,17.07L609,564.45c2.63-11.87,6.86-18.58,12.7-24.59q16.59-17,39.86-17h3.93" transform="translate(-194.68 -216.88)"/>
  </g>
</svg>
