<svg xmlns="http://www.w3.org/2000/svg" viewBox="0 0 1080 1080">
  <defs>
    <style>
      .cls-1 {
        isolation: isolate;
      }

      .cls-2 {
        fill: #d172b2;
      }

      .cls-3 {
        fill: #547fce;
      }

      .cls-4 {
        fill: #c389f7;
      }

      .cls-5 {
        fill: #1a4ac8;
      }

      .cls-6 {
        fill: #7c59cd;
      }

      .cls-7 {
        fill: #1a2867;
      }

      .cls-8 {
        fill: #0e1748;
      }

      .cls-9 {
        fill: #263986;
      }

      .cls-10, .cls-11 {
        fill: #799ce1;
      }

      .cls-11 {
        opacity: 0.5;
        mix-blend-mode: multiply;
      }

      .cls-12 {
        fill: #c7cefa;
      }

      .cls-13 {
        fill: none;
        stroke: #1a2867;
        stroke-miterlimit: 10;
        stroke-width: 2px;
      }

      .cls-14 {
        fill: #a398f8;
      }
    </style>
  </defs>
  <g class="cls-1">
    <g id="elements">
      <path class="cls-2" d="M853.63,317.91c-14.49,12.86-70.78,128-116.89,212.11s55.36-23.67,71.75-37S703.19,722.37,692.37,771.53,854.43,463.36,873.81,419.68c18.34-41.33-33.25,18.19-46.81,31S868.12,305.05,853.63,317.91Z"/>
      <path class="cls-3" d="M743.14,108.66c-9.87,18.77-11.26,16.67-21.27,36.16s3.36,38.65,26.06.14C779.55,91.32,770.85,56,743.14,108.66Z"/>
      <path class="cls-4" d="M241.15,684.7c-7.72,0-23.28,25-7.72,31.7S248.86,684.7,241.15,684.7Z"/>
      <path class="cls-4" d="M242.47,758.06S184.81,845,187.88,853.94s72.5-90.3,83.26-119.5S267.53,719,242.47,758.06Z"/>
      <path class="cls-5" d="M856.81,593.65s-4.66,6-12.07,26.52,5.41,14.67,20.11-12.59,41.32-62,27.09-65.68S870.6,565.61,856.81,593.65Z"/>
      <path class="cls-5" d="M746.7,273.88c-7.29,10.94-9.72,23.85,13.06,26.05s21.88-28.57,16.41-33.34C764.32,256.26,752.48,265.2,746.7,273.88Z"/>
      <path class="cls-5" d="M377.92,709.81c-18.06,33.8-54.33,110-32.45,96.37s51.86-94.37,77.15-115.73S406.53,656.26,377.92,709.81Z"/>
      <path class="cls-3" d="M301.23,442.05s-90.47,135.4-112.39,206.18S268.42,559,268.42,559s-30.87,127,55.05-35.52C411,357.83,385.88,329.13,301.23,442.05Z"/>
      <path class="cls-5" d="M238.67,377.83c-10.35,33.13,19.58,24.09,26.15,2.28S249,344.7,238.67,377.83Z"/>
    </g>
    <g id="phone">
      <g>
        <path class="cls-6" d="M236.91,260.59l214,681.68a25.54,25.54,0,0,0,31.21,17.22l358.27-99.23c14.13-3.89,34.21-33.16,29.56-47L611,150.13a25.53,25.53,0,0,0-30.62-16.61l-331.46,68.2s-1.94,2.36-11.25,21.91C229.4,240.89,232.7,246.7,236.91,260.59Z"/>
        <path class="cls-7" d="M244.15,225.66,466.64,922.33A25.53,25.53,0,0,0,498,939.25L851.39,838.56a25.54,25.54,0,0,0,17.14-32.89L630.91,117.52a25.53,25.53,0,0,0-30.77-16.32L261.88,193.36A25.55,25.55,0,0,0,244.15,225.66Z"/>
        <path class="cls-8" d="M244.15,225.66,466.64,922.33A25.53,25.53,0,0,0,498,939.25L851.39,838.56a25.54,25.54,0,0,0,17.14-32.89L630.91,117.52C626.53,104.84,477,674.52,464.07,678L261.88,193.36A25.55,25.55,0,0,0,244.15,225.66Z"/>
        <path class="cls-9" d="M660.88,204.32l-30-86.8a25.53,25.53,0,0,0-30.77-16.32L519,123.3Z"/>
        <path class="cls-10" d="M272.45,252.32,474.78,885.9a23.22,23.22,0,0,0,28.53,15.39l321.38-91.57a23.23,23.23,0,0,0,15.59-29.92L624.18,154a23.22,23.22,0,0,0-28-14.84L490.66,167.89c-3.89,1.06-5.26,4.4-6.46,8.24-2,6.56-9,16.09-22.41,19.29-16.48,4-27.72-3.72-33.56-7.74-2.83-2-4.63-1.52-8-.61L288.57,223A23.21,23.21,0,0,0,272.45,252.32Z"/>
        <path class="cls-11" d="M377.94,546.41,479.16,872.74a22.33,22.33,0,0,0,27.42,14.8l308.91-88a22.33,22.33,0,0,0,15-28.76S374.15,534.3,377.94,546.41Z"/>
        <g>
          <circle class="cls-10" cx="456.67" cy="181.72" r="7.41"/>
          <circle class="cls-6" cx="455.79" cy="181.72" r="6.53"/>
          <circle class="cls-7" cx="455.9" cy="182.07" r="6.18"/>
        </g>
        <g>
          <path d="M396.05,297.33l7.64-2.23c4.46-1.3,7.92.56,9,4.38v0c1.26,4.33-1.45,7.55-5.64,8.78l-3.12.91,1.63,5.6L401.5,316Zm10.12,7.28c2.05-.6,2.9-2.18,2.43-3.78l0-.06c-.53-1.84-2.1-2.45-4.16-1.85l-3.18.92,1.67,5.72Z"/>
          <path d="M413.41,291.4l4.06-1.19,5.68,19.5-4.06,1.18Z"/>
          <path d="M424.21,301.72v-.05c-1.2-4.09.73-8.3,4.9-9.52,4.78-1.39,8,1.68,9.24,5.74.09.32.17.7.25,1.09l-10,2.9a3.47,3.47,0,0,0,4.32,1.79,4.91,4.91,0,0,0,3-2.49l2.93,1.38a7.88,7.88,0,0,1-14.71-.84Zm9.75-4.14c-.77-1.75-2.2-2.67-3.91-2.17s-2.43,2-2.21,3.95Z"/>
          <path d="M441.28,300v0c-.91-3.13,1-5.26,4.43-6.25a10.4,10.4,0,0,1,3.67-.43l-.07-.25c-.49-1.68-1.8-2.31-3.83-1.72a11,11,0,0,0-3.73,1.93l-1.92-2.8a13.15,13.15,0,0,1,5.22-2.77,6.86,6.86,0,0,1,5.3.19,6.5,6.5,0,0,1,2.88,4.12l2.43,8.3-3.93,1.15-.45-1.55a5.75,5.75,0,0,1-3.8,3.08C444.78,303.69,442.11,302.79,441.28,300Zm9.05-3.65-.21-.72a6.51,6.51,0,0,0-2.75.22c-1.73.5-2.6,1.51-2.23,2.79l0,.06c.32,1.09,1.41,1.47,2.72,1.08C449.78,299.19,450.76,297.78,450.33,296.31Z"/>
          <path d="M457.47,297.64l.95-3.17a8.45,8.45,0,0,0,5,.39c1.17-.34,1.58-.92,1.39-1.57v-.05c-.26-.88-1.73-.77-3.45-.79-2.17,0-4.72-.28-5.53-3.05v-.06c-.85-2.91,1-5.22,3.91-6.06a10.3,10.3,0,0,1,5.82.1l-.73,3.25a9,9,0,0,0-4.26-.21c-1,.29-1.37.87-1.21,1.43l0,0c.23.8,1.7.78,3.41.86,2.19.09,4.8.37,5.56,3l0,.05c.92,3.18-1,5.31-4.13,6.22A10.42,10.42,0,0,1,457.47,297.64Z"/>
          <path d="M469.79,288.43l0-.05c-1.19-4.09.74-8.3,4.9-9.52,4.78-1.39,8.06,1.68,9.24,5.74.09.32.18.7.26,1.09l-10,2.9a3.45,3.45,0,0,0,4.31,1.78,4.85,4.85,0,0,0,3.05-2.48l2.92,1.38a7.87,7.87,0,0,1-14.7-.84Zm9.74-4.14c-.77-1.75-2.2-2.67-3.91-2.17s-2.42,2-2.21,3.95Z"/>
          <path d="M494.16,281.32v-.05c-1.2-4.09.73-8.3,4.9-9.52,4.78-1.39,8.05,1.68,9.24,5.74.09.32.17.71.25,1.09l-10,2.9a3.46,3.46,0,0,0,4.32,1.78,4.86,4.86,0,0,0,3-2.48l2.93,1.38a7.88,7.88,0,0,1-14.71-.84Zm9.75-4.14c-.78-1.75-2.2-2.67-3.91-2.17s-2.43,2-2.21,3.95Z"/>
          <path d="M509.11,269.11l4.06-1.18.59,2a5.29,5.29,0,0,1,3.52-3.52c3.08-.9,5.46.61,6.42,3.89l2.7,9.27-4.06,1.18-2.33-8c-.56-1.92-1.76-2.65-3.31-2.2s-2.24,1.73-1.68,3.65l2.32,8-4.05,1.18Z"/>
          <path d="M529.4,274.32l-2-6.78-1.71.49-1-3.47,1.71-.5-1.07-3.65,4.06-1.19,1.07,3.66,3.36-1,1,3.47-3.37,1,1.79,6.12c.27.93.8,1.27,1.71,1a4.09,4.09,0,0,0,1.85-1.09l1,3.26a6.2,6.2,0,0,1-3,1.76C532.34,278.13,530.37,277.63,529.4,274.32Z"/>
          <path d="M537.84,268.58l0-.05c-1.19-4.08.74-8.3,4.91-9.51,4.78-1.4,8,1.68,9.23,5.73.1.33.18.71.26,1.09l-10,2.9a3.46,3.46,0,0,0,4.32,1.79,4.93,4.93,0,0,0,3-2.48l2.92,1.37a7.87,7.87,0,0,1-14.7-.84Zm9.74-4.14c-.77-1.75-2.19-2.66-3.9-2.17s-2.43,2-2.21,4Z"/>
          <path d="M552.79,256.37l4.06-1.18.84,2.88c.25-2.22,1.21-3.89,3.65-4.48l1.24,4.24-.22.07c-2.7.78-3.88,2.9-2.88,6.31L561,269.5,557,270.69Z"/>
          <path d="M378.68,361.09l.5-3.33a3.85,3.85,0,0,0,1.9.05,1.41,1.41,0,0,0,1.15-1.35l-9.8-12.73,4.3-1.25,6.1,8.8.28-10.66,4.22-1.23-1.23,16.26c-.24,3.23-1.1,4.67-3.53,5.38A7,7,0,0,1,378.68,361.09Z"/>
          <path d="M390.34,346.36v-.05a7.83,7.83,0,0,1,5.6-9.72,7.74,7.74,0,0,1,9.87,5.15l0,.05a8.08,8.08,0,0,1-15.48,4.57ZM401.83,343l0-.05a4,4,0,0,0-4.92-2.86,3.83,3.83,0,0,0-2.57,5v.05a4,4,0,0,0,4.92,2.85A3.82,3.82,0,0,0,401.83,343Z"/>
          <path d="M409.25,343.05l-2.7-9.27,4.06-1.18,2.33,8c.56,1.93,1.75,2.65,3.3,2.2s2.25-1.73,1.69-3.65l-2.33-8,4.06-1.18,4.17,14.31-4.05,1.19-.6-2a5.26,5.26,0,0,1-3.52,3.52C412.59,347.84,410.21,346.33,409.25,343.05Z"/>
          <path d="M423.29,328.9l4.06-1.18.84,2.88c.25-2.22,1.21-3.89,3.64-4.48l1.24,4.25-.21.06c-2.7.78-3.88,2.9-2.88,6.31l1.54,5.29-4.06,1.18Z"/>
          <path d="M444.58,333.76l0-.05c-.91-3.13,1.05-5.26,4.44-6.25a10.62,10.62,0,0,1,3.67-.43l-.07-.24c-.49-1.69-1.81-2.32-3.84-1.72A10.94,10.94,0,0,0,445,327l-1.92-2.8a13.2,13.2,0,0,1,5.22-2.77,7,7,0,0,1,5.3.19,6.52,6.52,0,0,1,2.88,4.12l2.42,8.3L455,335.18l-.46-1.55a5.73,5.73,0,0,1-3.79,3.08C448.07,337.5,445.4,336.59,444.58,333.76Zm9-3.65-.21-.72a6.47,6.47,0,0,0-2.74.22c-1.74.51-2.6,1.51-2.23,2.79l0,.06c.32,1.09,1.41,1.47,2.72,1.09C453.07,333,454.05,331.58,453.62,330.11Z"/>
          <path d="M459.68,326.14l0-.05a7.66,7.66,0,0,1,5.33-9.64,7.31,7.31,0,0,1,6.42.74l-1.7,3.39A4.32,4.32,0,0,0,466,320a3.81,3.81,0,0,0-2.34,4.91l0,.05a3.81,3.81,0,0,0,4.78,2.89,4.7,4.7,0,0,0,2.84-2.48l3.08,1.71a7.52,7.52,0,0,1-5.08,4.33A7.62,7.62,0,0,1,459.68,326.14Z"/>
          <path d="M474.52,321.81v-.05a7.66,7.66,0,0,1,5.33-9.64,7.29,7.29,0,0,1,6.41.74l-1.7,3.39a4.35,4.35,0,0,0-3.72-.62,3.8,3.8,0,0,0-2.33,4.91v0a3.82,3.82,0,0,0,4.79,2.89,4.69,4.69,0,0,0,2.84-2.48l3.08,1.71a7.54,7.54,0,0,1-5.09,4.33A7.62,7.62,0,0,1,474.52,321.81Z"/>
          <path d="M489.37,317.48l0-.05c-1.19-4.09.74-8.3,4.91-9.51,4.78-1.4,8.05,1.67,9.23,5.73.1.32.18.71.26,1.09l-10,2.9a3.46,3.46,0,0,0,4.32,1.79,4.91,4.91,0,0,0,3-2.49l2.92,1.38a7.87,7.87,0,0,1-14.7-.84Zm9.74-4.14c-.77-1.75-2.19-2.67-3.9-2.17s-2.43,2-2.21,3.95Z"/>
          <path d="M506.82,318l.95-3.18a8.45,8.45,0,0,0,5,.39c1.17-.34,1.58-.92,1.39-1.56v-.06c-.26-.88-1.73-.77-3.45-.79-2.17,0-4.72-.28-5.53-3.05v-.06c-.85-2.91,1-5.22,3.91-6.06a10.3,10.3,0,0,1,5.82.1l-.73,3.25a9,9,0,0,0-4.26-.21c-1,.29-1.37.87-1.21,1.43l0,0c.23.8,1.7.78,3.41.86,2.19.09,4.8.37,5.56,3l0,.05c.92,3.18-1,5.31-4.13,6.22A10.48,10.48,0,0,1,506.82,318Z"/>
          <path d="M520,314.18l1-3.17a8.42,8.42,0,0,0,5,.39c1.18-.34,1.59-.93,1.4-1.57l0-.05c-.25-.88-1.73-.77-3.44-.79-2.18,0-4.72-.28-5.53-3.05l0-.06c-.84-2.91,1-5.22,3.91-6.06a10.42,10.42,0,0,1,5.83.09l-.73,3.26a8.82,8.82,0,0,0-4.26-.21c-1,.29-1.37.87-1.21,1.43v.05c.24.8,1.71.78,3.41.86,2.2.09,4.8.37,5.57,3v0c.93,3.18-1,5.31-4.12,6.22A10.45,10.45,0,0,1,520,314.18Z"/>
          <path d="M540.28,302.63v-.05a7.65,7.65,0,0,1,5.33-9.64,7.33,7.33,0,0,1,6.41.74l-1.7,3.39a4.39,4.39,0,0,0-3.72-.62,3.8,3.8,0,0,0-2.33,4.91v.05a3.83,3.83,0,0,0,4.79,2.9,4.76,4.76,0,0,0,2.84-2.48l3.07,1.71a7.49,7.49,0,0,1-5.08,4.32A7.62,7.62,0,0,1,540.28,302.63Z"/>
          <path d="M555.13,298.31l0-.06a7.82,7.82,0,0,1,5.6-9.71,7.74,7.74,0,0,1,9.87,5.14l0,.06a7.82,7.82,0,0,1-5.6,9.71A7.74,7.74,0,0,1,555.13,298.31ZM566.61,295l0-.06a4,4,0,0,0-4.91-2.85,3.81,3.81,0,0,0-2.58,5l0,.05a4,4,0,0,0,4.91,2.86A3.82,3.82,0,0,0,566.61,295Z"/>
          <path d="M572.89,293.07V293c-1.4-4.78,1-8.3,4.35-9.29a5.7,5.7,0,0,1,5.09.83l-2.06-7.05,4.06-1.18L590,295.81,586,297l-.6-2.06a5.48,5.48,0,0,1-3.79,3.62C578.23,299.54,574.29,297.85,572.89,293.07Zm11-3.22,0-.05c-.69-2.38-2.72-3.5-4.62-2.94s-3,2.57-2.35,5l0,.05a3.81,3.81,0,0,0,4.65,2.94C583.5,294.26,584.61,292.23,583.92,289.85Z"/>
          <path d="M590.87,287.88v-.05c-1.19-4.09.74-8.3,4.9-9.52,4.78-1.39,8,1.68,9.24,5.74.09.32.17.7.26,1.08l-10,2.91a3.44,3.44,0,0,0,4.31,1.78,4.88,4.88,0,0,0,3-2.48l2.92,1.38a7.88,7.88,0,0,1-14.71-.84Zm9.75-4.15c-.77-1.74-2.2-2.66-3.91-2.16s-2.42,2-2.21,3.95Z"/>
        </g>
        <path d="M321.67,263.22l-1.59,5.3-4.24,1.23,2.9-8.72-6.89-5.64,4.35-1.27,3.9,3.41,1.47-5,4.25-1.24-2.8,8.41,7.19,5.84-4.36,1.27Z"/>
        <g>
          <polygon class="cls-12" points="645.35 371.77 391.8 446.79 377.32 406.05 630.87 331.02 645.35 371.77"/>
          <line class="cls-13" x1="401.96" y1="406.67" x2="410.73" y2="431.41"/>
        </g>
        <g>
          <path class="cls-6" d="M668.37,461.12,423.88,533.49a4.73,4.73,0,0,1-5.9-3.08L407.92,499a5.09,5.09,0,0,1,3.42-6.38l244-72.24a4.73,4.73,0,0,1,5.88,3l10.51,31.31A5.1,5.1,0,0,1,668.37,461.12Z"/>
          <g>
            <path class="cls-12" d="M483.22,483l8.54-2.49a7.73,7.73,0,0,1,6,.3,6.11,6.11,0,0,1,2.85,3.81l0,.05a6,6,0,0,1-2.32,7l6.51,5.35-4.8,1.4-5.75-4.81-3.23.94,1.74,6-4.11,1.2Zm10.92,6.66c2-.58,2.84-2,2.38-3.56V486c-.52-1.77-2-2.32-4-1.73l-4.09,1.19,1.57,5.37Z"/>
            <path class="cls-12" d="M504.52,489.34l0,0c-1.19-4.09.74-8.3,4.91-9.52,4.78-1.39,8.05,1.68,9.23,5.74.1.32.18.7.26,1.08l-10,2.91a3.46,3.46,0,0,0,4.32,1.78,4.86,4.86,0,0,0,3-2.48l2.92,1.38a7.87,7.87,0,0,1-14.7-.84Zm9.74-4.15c-.77-1.74-2.19-2.66-3.9-2.16s-2.43,2-2.21,4Z"/>
            <path class="cls-12" d="M520.92,484.5v-.06c-1.4-4.78,1-8.3,4.36-9.29a5.72,5.72,0,0,1,5.08.83l-2.06-7.05,4.06-1.18L538,487.24,534,488.43l-.6-2.06A5.47,5.47,0,0,1,529.6,490C526.26,491,522.32,489.28,520.92,484.5Zm11-3.22v0c-.7-2.38-2.73-3.5-4.63-2.94s-3,2.57-2.34,5v.05c.7,2.38,2.76,3.49,4.65,2.94S532.65,483.66,532,481.28Z"/>
            <path class="cls-12" d="M538.91,479.31l0-.05c-1.19-4.09.74-8.3,4.9-9.52,4.79-1.39,8.06,1.68,9.24,5.74.09.32.18.7.26,1.09l-10,2.9a3.45,3.45,0,0,0,4.31,1.78,4.85,4.85,0,0,0,3.05-2.48l2.92,1.38a7.87,7.87,0,0,1-14.7-.84Zm9.74-4.14c-.77-1.75-2.2-2.67-3.9-2.17s-2.43,2-2.21,3.95Z"/>
            <path class="cls-12" d="M555.27,474.54v-.06c-1.19-4.08.74-8.29,4.9-9.51,4.78-1.39,8.05,1.68,9.24,5.74.09.32.17.7.26,1.08l-10,2.91a3.47,3.47,0,0,0,4.32,1.78,4.87,4.87,0,0,0,3-2.48l2.93,1.38a7.88,7.88,0,0,1-14.71-.84Zm9.75-4.15c-.77-1.74-2.2-2.66-3.91-2.16s-2.43,2-2.21,3.95Z"/>
            <path class="cls-12" d="M570.22,462.33l4.06-1.19.59,2a5.37,5.37,0,0,1,3.55-3.53,4.47,4.47,0,0,1,4.7,1.1,6.12,6.12,0,0,1,4-3.64c3-.88,5.36.4,6.36,3.85l2.72,9.32-4.06,1.18-2.33-8c-.56-1.92-1.7-2.66-3.22-2.22s-2.17,1.7-1.61,3.63l2.33,8-4.06,1.19-2.33-8c-.56-1.92-1.7-2.66-3.22-2.22s-2.17,1.71-1.61,3.63l2.33,8-4.06,1.18Z"/>
          </g>
        </g>
      </g>
      <g>
        <path class="cls-8" d="M297.53,424.67a4,4,0,0,1-3.82-2.79l-27.08-85.65a4,4,0,0,1,7.62-2.42l27.09,85.65a4,4,0,0,1-2.61,5A3.86,3.86,0,0,1,297.53,424.67Z"/>
        <path class="cls-14" d="M295.41,425.56a3.8,3.8,0,0,1-3.52-2.79l-26.74-85.53a4,4,0,0,1,2.22-5,3.65,3.65,0,0,1,4.6,2.61l26.74,85.53a4,4,0,0,1-2.22,5A3.35,3.35,0,0,1,295.41,425.56Z"/>
      </g>
      <g>
        <path class="cls-8" d="M320.08,498.93a4,4,0,0,1-3.81-2.79l-18.29-60a4,4,0,1,1,7.63-2.41l18.28,60a4,4,0,0,1-2.6,5A3.92,3.92,0,0,1,320.08,498.93Z"/>
        <path class="cls-14" d="M318,499.82a3.78,3.78,0,0,1-3.51-2.79l-17.94-59.85a4,4,0,0,1,2.22-5,3.65,3.65,0,0,1,4.6,2.6l17.94,59.85a4,4,0,0,1-2.22,5A3.46,3.46,0,0,1,318,499.82Z"/>
      </g>
    </g>
  </g>
</svg>
