<svg xmlns="http://www.w3.org/2000/svg" width="65.069" height="65.07" viewBox="0 0 65.069 65.07">
  <g id="mastergroup" data-name="Group 70" transform="translate(-552.158 -412.681)">
    <g id="maingroup" data-name="Group 68">
      <path id="path1" data-name="Path 129" d="M593.927,477.751a9.609,9.609,0,0,1-6.795-16.4,13.132,13.132,0,0,0-18.57-18.572,9.61,9.61,0,0,1-13.59-13.59,32.35,32.35,0,0,1,45.75,45.75A9.579,9.579,0,0,1,593.927,477.751Z" fill="#ffaf00"/>
    </g>
    <g id="path2" data-name="Group 69">
      <path id="Path_130" data-name="Path 130" d="M599.692,471.986a9.609,9.609,0,0,1-6.8-16.4,13.131,13.131,0,1,0-18.569-18.572,9.61,9.61,0,0,1-13.591-13.59,32.35,32.35,0,0,1,45.75,45.75A9.581,9.581,0,0,1,599.692,471.986Z" fill="none" stroke="#010101" stroke-miterlimit="10" stroke-width="2.562"/>
    </g>
  </g>
</svg>

