<svg id="Group_1" data-name="Group 1" xmlns="http://www.w3.org/2000/svg" width="608.157" height="787.141" viewBox="0 0 608.157 787.141">
  <path id="Path_2" data-name="Path 2" d="M904.078,564.467,795.186,485.176s-62.375-105.721-72.947-173.382-58.146-188.183-58.146-188.183V60.178s-54.975-21.144-59.2,37,11.629,133.208,11.629,133.208,15.858,95.149-20.087,119.465L465.337,564.467S591.145,679.7,689.465,694.5L904.078,843.57Z" transform="translate(-295.922 -56.43)" fill="#ffb8b8"/>
  <path id="Path_3" data-name="Path 3" d="M337.943,260.519h-3.59c-32.341,0-50.52,38.182-29.27,62.561,6.84,7.847,17.236,13.279,32.859,13.558Z" transform="translate(-295.922 -56.43)" fill="#ffb8b8"/>
  <path id="Path_4" data-name="Path 4" d="M337.943,336.638h-3.59c-32.341,0-50.52,38.182-29.27,62.561,6.84,7.847,17.236,13.279,32.859,13.558Z" transform="translate(-295.922 -56.43)" fill="#ffb8b8"/>
  <path id="Path_5" data-name="Path 5" d="M337.943,412.758h-3.59c-32.341,0-50.52,38.182-29.27,62.561,6.84,7.847,17.236,13.279,32.859,13.558Z" transform="translate(-295.922 -56.43)" fill="#ffb8b8"/>
  <path id="Path_6" data-name="Path 6" d="M337.943,488.877h-3.59c-32.341,0-50.52,38.182-29.27,62.561,6.84,7.847,17.236,13.279,32.859,13.558Z" transform="translate(-295.922 -56.43)" fill="#ffb8b8"/>
  <path id="Path_7" data-name="Path 7" d="M618.632,242.345h-3.146V156.152A49.886,49.886,0,0,0,565.6,106.266H382.989A49.886,49.886,0,0,0,333.1,156.152v472.86A49.886,49.886,0,0,0,382.989,678.9H565.6a49.886,49.886,0,0,0,49.886-49.886V303.7h3.146Z" transform="translate(-295.922 -56.43)" fill="#3f3d56"/>
  <path id="Path_8" data-name="Path 8" d="M604.867,156.5v472.16a37.4,37.4,0,0,1-13.68,28.862,34.592,34.592,0,0,1-2.95,2.167,37.085,37.085,0,0,1-20.626,6.227H384.122a36.826,36.826,0,0,1-8.828-1.057,37.255,37.255,0,0,1-28.428-36.2V156.5a37.259,37.259,0,0,1,37.253-37.256h22.268a17.7,17.7,0,0,0,16.387,24.379H527.384a17.717,17.717,0,0,0,16.4-24.379h23.829A37.259,37.259,0,0,1,604.867,156.5Z" transform="translate(-295.922 -56.43)" fill="#5643cc"/>
  <path id="Path_9" data-name="Path 9" d="M437.36,475.053s18.012,50.032,4,78.05,22.014,60.039,22.014,60.039,94.061-48.031,82.053-72.047-32.021-56.036-28.018-76.049Z" transform="translate(-295.922 -56.43)" fill="#ffb8b8"/>
  <circle id="Ellipse_1" data-name="Ellipse 1" cx="64.041" cy="64.041" r="64.041" transform="translate(112.42 309.552)" fill="#ffb8b8"/>
  <path id="Path_10" data-name="Path 10" d="M596.9,654.744a37.255,37.255,0,0,1-5.709,5.836,34.6,34.6,0,0,1-2.95,2.167c-5.91,3.933-12.993,5.17-20.626,5.17H405.541l2.8-77.789L426.357,550.1a83.6,83.6,0,0,0,12.93,8.341c1.078.581,2.22,1.163,3.415,1.734,16.873,8.151,44.456,15.319,71.192-4.641,8.415-6.28,16.746-15.255,24.644-27.731l49.921,28.3,2.622,30.659Z" transform="translate(-295.922 -56.43)" fill="#fff"/>
  <path id="Path_11" data-name="Path 11" d="M446.529,520.151l-2.506,26.187L442.7,560.177l-1.977,20.6-8.447,88.192H384.122a36.826,36.826,0,0,1-8.828-1.057l-18.988-87.8.55-.359Z" transform="translate(-295.922 -56.43)" fill="#2f2e41"/>
  <path id="Path_12" data-name="Path 12" d="M604.867,538.144v93.574a37.4,37.4,0,0,1-13.68,28.862,34.613,34.613,0,0,1-2.95,2.167,37.085,37.085,0,0,1-20.626,6.227H503.174c1.406-29.57,3.891-58.432,6.8-83.572,1.248-10.71,2.569-20.742,3.922-29.866,4.356-29.412,9.029-49.382,12.38-52.078l22.159,14.621Z" transform="translate(-295.922 -56.43)" fill="#2f2e41"/>
  <path id="Path_13" data-name="Path 13" d="M402.338,652.164l-2.3,16.81H384.122a36.826,36.826,0,0,1-8.828-1.057,37.255,37.255,0,0,1-28.428-36.2v-3.383l7.443-48.219,2.548-.359,11.46-1.639Z" transform="translate(-295.922 -56.43)" fill="#2f2e41"/>
  <path id="Path_14" data-name="Path 14" d="M604.867,550.345v81.373a37.4,37.4,0,0,1-13.68,28.862,34.613,34.613,0,0,1-2.95,2.167l-9.79-42.606,12.634-33.376Z" transform="translate(-295.922 -56.43)" fill="#2f2e41"/>
  <path id="Path_15" data-name="Path 15" d="M533.453,372.1a74.816,74.816,0,0,0-42.558-32.535l-13.012,10.409,5.059-12.141a68.872,68.872,0,0,0-12.86-.743l-11.707,15.052,4.845-14.537c-20.229,2.579-39.461,13.6-51.118,30.406-14.9,21.485-17.415,51.364-2.76,73.017,4.023-12.363,8.906-23.964,12.929-36.327.928.4,4.446.372,9.532.046l4.895-11.421,1.367,10.938c15.171-1.322,37.672-4.224,52.055-6.882l-1.4-8.391,8.367,6.973c4.406-1.014,7.023-1.934,6.806-2.637,10.7,17.244,21.295,28.258,31.991,45.5C539.946,414.508,547.114,394.29,533.453,372.1Z" transform="translate(-295.922 -56.43)" fill="#2f2e41"/>
  <ellipse id="Ellipse_2" data-name="Ellipse 2" cx="4.335" cy="8.671" rx="4.335" ry="8.671" transform="translate(229.65 362.911)" fill="#ffb8b8"/>
  <ellipse id="Ellipse_3" data-name="Ellipse 3" cx="79.819" cy="178.668" rx="79.819" ry="178.668" transform="translate(295.223 240.563)" fill="#ffb8b8"/>
</svg>
