<?xml version="1.0" encoding="utf-8"?>
<!-- Generator: Adobe Illustrator 25.0.0, SVG Export Plug-In . SVG Version: 6.00 Build 0)  -->
<svg version="1.1" id="b289b9a6-17c4-451f-8726-1e09bbb0209f"
	 xmlns="http://www.w3.org/2000/svg" xmlns:xlink="http://www.w3.org/1999/xlink" x="0px" y="0px" viewBox="0 0 733 728.9"
	 style="enable-background:new 0 0 733 728.9;" xml:space="preserve">
<style type="text/css">
	.st0{fill:#CCCCCC;}
	.st1{fill:#FFFFFF;}
	.st2{fill:#2F2E41;}
	.st3{fill:#FFB8B8;}
	.st4{fill:#6C63FF;}
	.st5{fill:#3F3D56;}
	.st6{fill:#E6E6E6;}
</style>
<path class="st0" d="M560.8,172.9h-4V63.4c0-35-28.4-63.4-63.4-63.4l0,0H261.3c-35,0-63.4,28.4-63.4,63.4v601
	c0,35,28.4,63.4,63.4,63.4h232.1c35,0,63.4-28.4,63.4-63.4V250.9h4L560.8,172.9z"/>
<path class="st1" d="M543.3,63.8v600.1c0,26.2-21.2,47.3-47.3,47.3H262.7c-26.2,0-47.3-21.2-47.4-47.3V63.8
	c0-26.2,21.2-47.3,47.4-47.3H291c-4.7,11.5,0.8,24.6,12.4,29.3c2.7,1.1,5.6,1.7,8.5,1.7h133c12.4,0,22.5-10.1,22.5-22.5
	c0-2.9-0.6-5.8-1.7-8.5h30.3C522.1,16.5,543.3,37.7,543.3,63.8z"/>
<path class="st2" d="M352.6,276c-12.4-5.7-20.5-22-20.1-38s8.9-31.1,20.6-38.7s26-8.2,38.5-2.9s29.3,6.8,36.8,20
	c5.8,10.2,3.7,32.8-0.4,44.1c-3.5,9.8-12.2,15.3-20.6,18.3c-18.9,6.8-39.8,5.2-57.3-4.6L352.6,276z"/>
<path class="st2" d="M423.1,462.2l-5.2-21.3l-0.4-1.5c-0.6-2.4-2.5-4.3-4.9-5l-5.2-1.4l-4.6-1.2l-10-2.7h0l-20.2-5.4l-17.9-4.8
	l-4.3-1.2l-11.9-3.2l-7.4-2l-11.5-3.1l-0.9-0.2c-3.3-0.9-6.7,0.8-8.1,3.9c-0.5,1.2-1,2.3-1.5,3.5c-5.8,14.8-10.3,30-13.2,45.6
	c-0.1,0.7-0.3,1.3-0.4,2h106c0,0.1,0,0.2,0,0.3c0.2-0.1,0.4-0.2,0.5-0.3h21.4L423.1,462.2z"/>
<ellipse transform="matrix(0.7071 -0.7071 0.7071 0.7071 -68.6159 341.7346)" class="st3" cx="378.2" cy="253.7" rx="37.5" ry="37.5"/>
<path class="st4" d="M418.2,450.6c-3.9,4.4-8.3,8.3-13.1,11.6c-1,0.7-2,1.4-3,2c-0.2,0.1-0.4,0.2-0.5,0.3c0-0.1,0-0.2,0-0.3h-85.9
	c-0.2-0.1-0.3-0.3-0.5-0.5c-0.5-0.5-1.1-1-1.6-1.5c-3.4-3.4-6.2-7.4-8.4-11.6l10.5-29.7l4-11.5l5.9-16.6l6.3-17.9
	c-0.5-1.7-1-3.3-1.3-5v0c-6-30.4,23.5-59.9,23.5-59.9c0.2-0.2,0.5-0.4,0.7-0.5c2.8-2.1,5.9-3.8,9.2-5.2c13.8-5.7,28.3-3.4,38-0.5
	c3.4,1,6.7,2.3,9.9,3.8c1.1,0.5,1.8,0.9,1.8,0.9l1,29.4l1.3,40.1l0.7,22.4l0.9,28.2l0.4,12.2L418.2,450.6z"/>
<path class="st2" d="M460.5,462.2l-9.4-48l-1.3-6.7l6.4-28.6l-3-15.2l-11.2-56.7c-0.6-2.8-2.8-5-5.6-5.5l-13.6-2.3l-12.7-2.2
	c-2.5-0.4-5,0.5-6.6,2.5c-1,1.2-1.5,2.7-1.5,4.2c0,0.9,0.2,1.9,0.6,2.7c9.2,21.6,5.8,60.8,2.5,98.7c-0.1,1.1-0.2,2.2-0.3,3.3
	c-0.7,7.9-1.4,15.6-1.9,23.1c-0.2,2.5-0.3,5-0.5,7.4c-0.5,8.1-0.8,15.8-0.7,23.1c0,0.7,0,1.3,0,2c0,0.1,0,0.2,0,0.3
	c0.2-0.1,0.4-0.2,0.5-0.3h58.7L460.5,462.2z"/>
<path class="st2" d="M364,304.4c-0.9-3.7-4.6-5.9-8.3-5c-0.9,0.2-1.8,0.7-2.6,1.2l-3.5,3.1l-26.3,24c-0.7,0.7-1.3,1.5-1.7,2.4
	c-2.5,5.9-7,16.9-12.4,30.7c-1.9,4.9-3.9,10.1-6,15.6c-3.5,9.1,8.1,23,4.6,32.9c-0.6,1.7-1.2,3.4-1.9,5.1c-7,17.7-17,32.6-20.4,47.9
	c-0.2,0.7-0.3,1.3-0.4,2h38.1c0-0.2,0.1-0.3,0.2-0.5c0.2-0.5,0.3-1,0.5-1.5c2.8-9.2,6-19.2,9.3-29.8c0.5-1.5,0.9-2.9,1.4-4.4
	c1.4-4.4,2.8-8.9,4.2-13.5c0.2-0.7,0.4-1.3,0.6-2c0.5-1.5,1-3.1,1.5-4.6c0.6-2,1.3-4,1.9-6.1c1.7-5.3,3.3-10.6,5-15.9
	c6.8-21.5,5.3-42.2,10.4-58.7c0.1-0.2,0.2-0.5,0.2-0.7c2.2-7.1,4.1-13.4,5.7-18.6C364.2,306.8,364.2,305.5,364,304.4z"/>
<path class="st2" d="M404.9,207c2.8,0.4,5.5-1.1,6.6-3.7c1-2.6,0.8-5.5-0.6-7.8c-1.4-2.3-3.4-4.3-5.8-5.7c-2.7-1.8-5.9-2.9-9.1-3.1
	c-3.3-0.2-6.5,1-8.8,3.4c-2.3,2.4-2.9,6-1.5,9.1c1.4,2.6,4.3,4.1,7.1,5.1c5.6,2,11.5,2.8,17.4,2.3L404.9,207z"/>
<path class="st2" d="M418.2,247.5c-5.8,1.7-5.5-1.4-8.7-6.6s-7.4-11.3-13.5-10.9c-5,0.3-8.5,4.8-12,8.3c-6.3,6.2-15.5,10.2-24.2,8.3
	s-15.8-10.9-13.9-19.6c1.1-4.9,4.7-8.9,9-11.4s9.3-3.6,14.2-4.2c11-1.3,22.2-0.1,32.7,3.4c7.3,2.4,14.6,6.4,18.2,13.1
	s6.8,16.5-0.3,19.5L418.2,247.5z"/>
<path class="st2" d="M514.3,253.4v34.4c-0.7,0.2-1.3,0.3-2,0.5c-4.8,1.1-9.7,1.8-14.6,2.4c-7.6,0.9-15.3,1.6-22.7-0.3
	c-10.3-2.6-19-10.3-24.2-19.5c-5.2-9.3-7.3-20.1-7.4-30.8c-0.1-8.3,1-16.6,0.5-24.9c-0.6-8.3-3.1-16.9-9.1-22.6
	c-6-5.7-16.1-7.6-22.7-2.6c-1.1,0.9-2.2,1.9-3.2,2.9c-1.3,1.4-2.8,2.6-4.4,3.6c-3,1.5-7.7,0.3-7.9-3l3.1-5.8
	c-0.1-0.1-0.2-0.3-0.3-0.4c-4.6-6.3-2.7-15.9,3-21.3c5.8-5.5,14.4-7.3,22.3-6.6c16.1,1.6,30.1,11.7,36.7,26.4
	c5,11.5,5,24.7,9.5,36.4c5,12.6,14.8,22.6,27.4,27.7c4.5,1.8,9.2,2.9,14,3.3C513,253.3,513.6,253.3,514.3,253.4z"/>
<path class="st5" d="M393.2,401.5h-0.4v-11.6c0-3.7-3-6.7-6.7-6.7l0,0h-24.6c-3.7,0-6.7,3-6.7,6.7v63.7c0,3.7,3,6.7,6.7,6.7h24.6
	c3.7,0,6.7-3,6.7-6.7l0,0v-43.8h0.4V401.5z"/>
<circle class="st1" cx="374" cy="407.6" r="7.6"/>
<path class="st3" d="M370.7,427.9c-0.2-0.2-0.4-0.4-0.6-0.6c-3.3-3.4-8-5.3-12.7-5.1c-0.8,0-1.5,0.1-2.2,0.3l-0.4-0.4l-4.3-4.3
	l-9.8-9.8l-6.1-6.1l-9-9l-6.7-6.7l-2.6-2.6l4.6-18l-11.8-4.7l-15.3-6.1l-0.2-0.1l-0.6,1.6l-4.1,11.4l-3.1,8.5
	c-3.6,10.2-1,21.6,6.8,29.1c0.9,0.8,1.8,1.6,2.8,2.3l10.4,7l3.4,2.3l6.4,4.3l10.6,7.1l6.6,4.4l8.4,5.6c0,0.5,0,1.1,0,1.7
	c0.2,4.8,2.4,9.2,6.1,12.3c2.2,1.8,4.8,3,7.6,3.5h0c3.5,0.6,7.1,0.2,10.3-1.4c4.3-2.1,7.5-5.9,8.8-10.4c0.3-1.1,0.6-2.3,0.6-3.5
	C375.2,435.7,373.7,431.3,370.7,427.9z"/>
<path class="st3" d="M469.4,383.7l-1.5-9.2l-2.2-13.2l-12.6,2.5l-16.3,3.3l1.3,18.6l-0.9,0.7l-20.4,14.1l-11.9,8.2l-11.9,8.2l0,0
	l-0.1,0.1c-0.7-0.3-1.4-0.5-2.2-0.7c-4.7-1.1-9.6-0.1-13.5,2.7c-1.8,1.3-3.3,2.9-4.5,4.8c-0.8,1.3-1.5,2.7-1.9,4.2
	c-0.3,0.9-0.5,1.9-0.6,2.9c-0.5,4.7,1,9.4,4.1,12.9c1.9,2.2,4.3,3.8,7.1,4.8c3.7,1.3,7.8,1.3,11.5-0.2h0c0.8-0.3,1.5-0.6,2.2-1
	c3.3-1.8,5.9-4.7,7.3-8.2c0.4-0.9,0.7-1.9,0.9-2.8c0.1-0.5,0.2-1.1,0.3-1.6l3.9-1.7l10.1-4.3l33.5-14.4l3.2-1.4
	c2.8-1.3,5.3-3.1,7.4-5.3C467.9,401.3,470.8,392.5,469.4,383.7z"/>
<path class="st2" d="M357.1,315.1c-0.5-1.9-1.3-3.8-2.3-5.5c-1.3-2.3-3.1-4.2-5.2-5.8c-0.9-0.7-1.8-1.3-2.8-1.8
	c-10.2-5.6-23.1-1.9-28.7,8.4l-24.4,44.4l-0.8,1.5l-5.7,10.4l1.6,1l14.3,8.9l15.8,9.8l1.1,0.7l10.6-16.9v0l24-38.3
	c0.9-1.5,1.7-3,2.2-4.7c0.1-0.2,0.1-0.5,0.2-0.7C358,322.6,358,318.8,357.1,315.1z"/>
<path class="st2" d="M449.2,311.9c-4.1-10.6-15.7-16.1-26.5-12.5c-0.6,0.2-1.3,0.5-1.9,0.8c-3.6,1.6-6.7,4.2-8.9,7.5
	c-0.9,1.3-1.6,2.7-2.2,4.2c-2,5.2-1.8,11.1,0.5,16.2l4.4,9.9l21.9,48.7l0.6-0.2l19-7.3l11.8-4.5l4.6-1.8L449.2,311.9z"/>
<path class="st4" d="M344.7,561.2h-72c-10.2,0-18.5-8.3-18.5-18.5s8.3-18.5,18.5-18.5l0,0h72c10.2,0,18.5,8.3,18.5,18.5
	S354.9,561.2,344.7,561.2z"/>
<path class="st6" d="M487.8,561.2h-72c-10.2,0-18.5-8.3-18.5-18.5s8.3-18.5,18.5-18.5h72c10.2,0,18.5,8.3,18.5,18.5
	S498,561.2,487.8,561.2z"/>
<path class="st5" d="M497.3,147.2h-236c-9.4,0-17,7.6-17,17v283c0,9.4,7.6,17,17,17h236c9.4,0,17-7.6,17-17v-283
	C514.3,154.8,506.7,147.2,497.3,147.2z M512.3,447.2c0,8.3-6.7,15-15,15h-236c-8.3,0-15-6.7-15-15v-283c0-8.3,6.7-15,15-15h236
	c8.3,0,15,6.7,15,15V447.2z"/>
<path class="st4" d="M308.7,223.3c-1.7,0-3.4-0.7-4.6-1.9l-30.4-39.7c-1.4-1.8-3.6-2.9-6-2.9H91.7c-18.5,0-33.6-15-33.6-33.5
	s15-33.6,33.6-33.6c0,0,0,0,0,0.1h220c18.5,0,33.5,15,33.5,33.5c0,15.1-10.1,28.3-24.6,32.3c-3.2,0.9-5.4,3.9-5.4,7.2v32
	c0,2.6-1.6,5-4,6C310.4,223.1,309.6,223.3,308.7,223.3z"/>
<circle class="st1" cx="102.1" cy="145.2" r="14.4"/>
<circle class="st1" cx="146.7" cy="145.2" r="14.4"/>
<circle class="st1" cx="191.4" cy="145.2" r="14.4"/>
</svg>
