<svg height="100%" width="100%" id="bg-svg" viewBox="0 0 1440 600"
	xmlns="http://www.w3.org/2000/svg" class="transition duration-300 ease-in-out delay-150">
	<defs>
		<linearGradient id="gradient">
			<stop offset="5%" stop-color="#5643cc66"></stop>
			<stop offset="95%" stop-color="#ef497a66"></stop>
		</linearGradient>
	</defs>
	<path id='path1' d="M 0,600 C 0,600 0,150 0,150 C 63.7977555802195,176.91621654951288 127.595511160439,203.83243309902576 175,205 C 222.404488839561,206.16756690097424 253.4157109384634,181.58648415340983 309,178 C 364.5842890615366,174.41351584659017 444.7416450857073,191.82163028733504 505,185 C 565.2583549142927,178.17836971266496 605.6177087187076,147.12699469724996 653,155 C 700.3822912812924,162.87300530275004 754.7875200394624,209.67039092366505 806,199 C 857.2124799605376,188.32960907633495 905.2322111234431,120.19144160808976 961,117 C 1016.7677888765569,113.80855839191024 1080.2836354667654,175.56384264397587 1137,200 C 1193.7163645332346,224.43615735602413 1243.6332470094956,211.55318781600687 1293,197 C 1342.3667529905044,182.44681218399313 1391.183376495252,166.22340609199657 1440,150 C 1440,150 1440,600 1440,600 Z" stroke="none" stroke-width="0" fill="url(#gradient)" class="transition-all duration-300 ease-in-out delay-150"></path>
	<defs>
		<linearGradient id="gradient">
			<stop offset="5%" stop-color="#5643cc88"></stop>
			<stop offset="95%" stop-color="#ef497a88"></stop>
		</linearGradient>
	</defs>
	<path id='path2' d="M 0,600 C 0,600 0,300 0,300 C 60.238007152546544,306.2203970896535 120.47601430509309,312.440794179307 166,318 C 211.5239856949069,323.559205820693 242.33394993217416,328.4572203724257 302,327 C 361.66605006782584,325.5427796275743 450.1881859662103,317.73032433099024 509,321 C 567.8118140337897,324.26967566900976 596.9133062029844,338.6214823036133 645,324 C 693.0866937970156,309.3785176963867 760.1585892218521,265.7837464545567 815,262 C 869.8414107781479,258.2162535454433 912.4523369096066,294.24353187816007 970,313 C 1027.5476630903934,331.75646812183993 1100.0320631397212,333.2421260328031 1147,328 C 1193.9679368602788,322.7578739671969 1215.419410531508,310.78796399062765 1260,305 C 1304.580589468492,299.21203600937235 1372.290294734246,299.6060180046862 1440,300 C 1440,300 1440,600 1440,600 Z" stroke="none" stroke-width="0" fill="url(#gradient)" class="transition-all duration-300 ease-in-out delay-150"></path>
	<defs>
		<linearGradient id="gradient">
			<stop offset="5%" stop-color="#5643ccff"></stop>
			<stop offset="95%" stop-color="#ef497aff"></stop>
		</linearGradient>
	</defs>
	<path  id='path3' d="M 0,600 C 0,600 0,450 0,450 C 52.96460722653842,438.3881119743495 105.92921445307684,426.77622394869894 154,414 C 202.07078554692316,401.22377605130106 245.24774941423107,387.2832161795535 294,396 C 342.75225058576893,404.7167838204465 397.0797878899989,436.0909113330868 457,453 C 516.9202121100011,469.9090886669132 582.4330990257738,472.35313848809966 648,479 C 713.5669009742262,485.64686151190034 779.1878160069059,496.4965347145147 826,478 C 872.8121839930941,459.5034652854853 900.8156369466025,411.6607226538414 951,412 C 1001.1843630533975,412.3392773461586 1073.549636206684,460.86057467011966 1137,486 C 1200.450363793316,511.13942532988034 1254.9858182266616,512.8969786656801 1304,503 C 1353.0141817733384,493.1030213343199 1396.5070908866692,471.55151066715996 1440,450 C 1440,450 1440,600 1440,600 Z" stroke="none" stroke-width="0" fill="url(#gradient)" class="transition-all duration-300 ease-in-out delay-150"></path>
</svg>